<?xml version="1.0" encoding="UTF-8"?>
<svg xmlns="http://www.w3.org/2000/svg" xmlns:xlink="http://www.w3.org/1999/xlink" width="40px" height="40px" viewBox="0 0 40 40" version="1.1">
<g id="surface1">
<path style=" stroke:none;fill-rule:evenodd;fill:rgb(0.784314%,1.176471%,1.176471%);fill-opacity:1;" d="M -0.078125 -0.078125 C 13.253906 -0.078125 26.585938 -0.078125 39.921875 -0.078125 C 39.921875 13.253906 39.921875 26.585938 39.921875 39.921875 C 26.585938 39.921875 13.253906 39.921875 -0.078125 39.921875 C -0.078125 26.585938 -0.078125 13.253906 -0.078125 -0.078125 Z M -0.078125 -0.078125 "/>
<path style=" stroke:none;fill-rule:evenodd;fill:rgb(47.843137%,50.588235%,50.588235%);fill-opacity:1;" d="M 21.679688 0.398438 C 20.933594 0.398438 20.1875 0.398438 19.441406 0.398438 C 19.484375 0.707031 19.433594 0.972656 19.28125 1.199219 C 19.28125 0.878906 19.28125 0.558594 19.28125 0.238281 C 20.109375 0.1875 20.910156 0.242188 21.679688 0.398438 Z M 21.679688 0.398438 "/>
<path style=" stroke:none;fill-rule:evenodd;fill:rgb(90.588235%,94.901961%,94.901961%);fill-opacity:1;" d="M 21.679688 0.398438 C 21.945312 0.398438 22.214844 0.398438 22.480469 0.398438 C 22.378906 1.140625 22.328125 1.890625 22.320312 2.640625 C 23.121094 2.773438 23.921875 2.933594 24.71875 3.121094 C 24.878906 3.066406 25.039062 3.011719 25.199219 2.960938 C 25.460938 2.328125 25.78125 1.738281 26.160156 1.199219 C 26.953125 1.679688 27.808594 2 28.71875 2.160156 C 28.582031 2.878906 28.367188 3.570312 28.078125 4.238281 C 28.085938 4.484375 28.191406 4.671875 28.398438 4.800781 C 29.066406 5.105469 29.707031 5.453125 30.320312 5.839844 C 30.902344 5.335938 31.464844 4.800781 32 4.238281 C 32.773438 4.90625 33.546875 5.574219 34.320312 6.238281 C 33.726562 6.78125 33.191406 7.367188 32.71875 8 C 33.21875 8.742188 33.753906 9.460938 34.320312 10.160156 C 35 9.757812 35.691406 9.382812 36.398438 9.039062 C 36.921875 9.8125 37.398438 10.613281 37.839844 11.441406 C 37.148438 11.972656 36.453125 12.507812 35.761719 13.039062 C 36.023438 13.777344 36.238281 14.523438 36.398438 15.28125 C 36.71875 15.28125 37.039062 15.28125 37.359375 15.28125 C 37.15625 15.617188 36.835938 15.777344 36.398438 15.761719 C 36.152344 15.714844 35.941406 15.605469 35.761719 15.441406 C 35.652344 15.558594 35.542969 15.664062 35.441406 15.761719 C 35.492188 15.867188 35.546875 15.972656 35.601562 16.078125 C 35.058594 16.074219 34.527344 16.125 34 16.238281 C 33.949219 16.628906 34.003906 17 34.160156 17.359375 C 34.3125 17.113281 34.367188 16.847656 34.320312 16.558594 C 34.480469 16.558594 34.640625 16.558594 34.800781 16.558594 C 34.773438 16.78125 34.800781 16.992188 34.878906 17.199219 C 35.027344 16.167969 35.238281 16.167969 35.519531 17.199219 C 35.597656 16.9375 35.625 16.671875 35.601562 16.398438 C 35.851562 16.246094 36.117188 16.21875 36.398438 16.320312 C 36.238281 16.375 36.078125 16.425781 35.921875 16.480469 C 35.945312 17.1875 36 17.851562 36.078125 18.480469 C 36.007812 18.609375 35.898438 18.660156 35.761719 18.640625 C 35.839844 18.027344 35.570312 17.707031 34.960938 17.679688 C 34.292969 17.679688 34 18 34.078125 18.640625 C 34.234375 18.921875 34.421875 18.976562 34.640625 18.800781 C 34.394531 18.636719 34.3125 18.421875 34.398438 18.160156 C 34.726562 18.011719 35.074219 17.960938 35.441406 18 C 35.460938 18.28125 35.410156 18.546875 35.28125 18.800781 C 35.429688 18.96875 35.589844 18.96875 35.761719 18.800781 C 35.980469 18.773438 36.191406 18.800781 36.398438 18.878906 C 36.25 18.941406 36.144531 19.046875 36.078125 19.199219 C 36.011719 19.757812 35.851562 20.261719 35.601562 20.71875 C 35.492188 20.453125 35.277344 20.34375 34.960938 20.398438 C 34.960938 20.1875 34.960938 19.972656 34.960938 19.761719 C 35.246094 19.804688 35.511719 19.753906 35.761719 19.601562 C 35.738281 19.503906 35.6875 19.449219 35.601562 19.441406 C 35.101562 19.285156 34.566406 19.230469 34 19.28125 C 34 19.441406 34 19.601562 34 19.761719 C 34.214844 19.761719 34.425781 19.761719 34.640625 19.761719 C 34.640625 19.921875 34.640625 20.078125 34.640625 20.238281 C 34.382812 20.195312 34.171875 20.25 34 20.398438 C 34.285156 20.695312 34.65625 20.800781 35.121094 20.71875 C 35.226562 20.878906 35.332031 21.039062 35.441406 21.199219 C 34.960938 21.097656 34.480469 21.070312 34 21.121094 C 34.253906 21.257812 34.519531 21.363281 34.800781 21.441406 C 33.300781 21.882812 33.355469 22.230469 34.960938 22.480469 C 34.949219 22.65625 34.898438 22.816406 34.800781 22.960938 C 34.292969 22.542969 33.785156 22.542969 33.28125 22.960938 C 33.148438 24 33.601562 24.347656 34.640625 24 C 34.730469 23.839844 34.835938 23.707031 34.960938 23.601562 C 34.808594 24.148438 34.59375 24.683594 34.320312 25.199219 C 33.722656 25.628906 33.613281 26.136719 34 26.71875 C 33.710938 27.101562 33.335938 27.367188 32.878906 27.519531 C 33.148438 27.679688 33.414062 27.839844 33.679688 28 C 33.5 28.164062 33.550781 28.269531 33.839844 28.320312 C 33.734375 28.375 33.625 28.425781 33.519531 28.480469 C 33.855469 28.605469 34.148438 28.792969 34.398438 29.039062 C 34.46875 28.808594 34.601562 28.726562 34.800781 28.800781 C 35.261719 29.167969 35.582031 29.621094 35.761719 30.160156 C 35.003906 29.714844 34.230469 29.289062 33.441406 28.878906 C 32.535156 29.597656 31.707031 30.398438 30.960938 31.28125 C 24.601562 35.867188 17.933594 36.320312 10.960938 32.640625 C 10.15625 32.078125 9.355469 31.519531 8.558594 30.960938 C 7.515625 29.941406 6.554688 28.847656 5.679688 27.679688 C 5.230469 27.613281 4.800781 27.691406 4.398438 27.921875 C 4.414062 27.761719 4.359375 27.628906 4.238281 27.519531 C 4.511719 27.367188 4.804688 27.285156 5.121094 27.28125 C 5.417969 27.367188 5.6875 27.367188 5.921875 27.28125 C 6.09375 27.464844 6.226562 27.679688 6.320312 27.921875 C 6.480469 28.132812 6.640625 28.132812 6.800781 27.921875 C 7.445312 27.25 7.925781 26.476562 8.238281 25.601562 C 8.1875 25.464844 8.132812 25.332031 8.078125 25.199219 C 7.914062 25.40625 7.753906 25.40625 7.601562 25.199219 C 7.429688 25.023438 7.296875 24.8125 7.199219 24.558594 C 7.085938 24.46875 6.949219 24.417969 6.800781 24.398438 C 6.507812 24.613281 6.1875 24.769531 5.839844 24.878906 C 5.679688 24.671875 5.707031 24.460938 5.921875 24.238281 C 5.972656 24.347656 6.027344 24.453125 6.078125 24.558594 C 6.160156 24.351562 6.183594 24.140625 6.160156 23.921875 C 5.945312 23.921875 5.734375 23.921875 5.519531 23.921875 C 5.871094 23.710938 6.246094 23.523438 6.640625 23.359375 C 5.847656 23.355469 5.714844 23.117188 6.238281 22.640625 C 6.347656 22.480469 6.347656 22.320312 6.238281 22.160156 C 6.074219 22.355469 5.886719 22.511719 5.679688 22.640625 C 5.707031 22.316406 5.679688 21.996094 5.601562 21.679688 C 5.425781 22.070312 5.347656 22.015625 5.359375 21.519531 C 6.171875 21.476562 6.199219 21.316406 5.441406 21.039062 C 5.164062 21.269531 4.953125 21.214844 4.800781 20.878906 C 4.4375 21.054688 4.144531 20.949219 3.921875 20.558594 C 4.121094 20.261719 4.121094 19.96875 3.921875 19.679688 C 4.207031 19.472656 4.472656 19.394531 4.71875 19.441406 C 4.34375 19.363281 3.96875 19.308594 3.601562 19.28125 C 3.414062 18.59375 3.386719 17.898438 3.519531 17.199219 C 3.855469 16.957031 3.832031 16.878906 3.441406 16.960938 C 3.347656 17.121094 3.242188 17.253906 3.121094 17.359375 C 3.121094 17.148438 3.121094 16.933594 3.121094 16.71875 C 2.464844 16.609375 1.828125 16.449219 1.199219 16.238281 C 1.085938 16.09375 0.925781 16.042969 0.71875 16.078125 C 0.71875 15.867188 0.71875 15.652344 0.71875 15.441406 C 0.878906 14.695312 1.039062 13.945312 1.199219 13.199219 C 1.933594 13.398438 2.679688 13.558594 3.441406 13.679688 C 3.601562 13.625 3.761719 13.574219 3.921875 13.519531 C 4.132812 12.75 4.453125 12.03125 4.878906 11.359375 C 4.269531 10.992188 3.683594 10.589844 3.121094 10.160156 C 2.941406 9.964844 2.914062 9.75 3.039062 9.519531 C 3.5 8.804688 4.035156 8.164062 4.640625 7.601562 C 5.199219 7.945312 5.757812 8.289062 6.320312 8.640625 C 7.136719 8.199219 7.832031 7.558594 8.398438 6.71875 C 7.882812 6.175781 7.457031 5.5625 7.121094 4.878906 C 7.707031 4.425781 8.292969 3.972656 8.878906 3.519531 C 9.128906 3.328125 9.394531 3.277344 9.679688 3.359375 C 10.078125 3.890625 10.503906 4.398438 10.960938 4.878906 C 11.851562 4.515625 12.652344 4.035156 13.359375 3.441406 C 13.25 2.890625 13.089844 2.355469 12.878906 1.839844 C 12.933594 1.734375 12.988281 1.625 13.039062 1.519531 C 13.964844 1.128906 14.898438 0.914062 15.839844 0.878906 C 15.953125 1.597656 16.222656 2.238281 16.640625 2.800781 C 17.503906 2.570312 18.386719 2.464844 19.28125 2.480469 C 19.28125 2.054688 19.28125 1.625 19.28125 1.199219 C 19.433594 0.972656 19.484375 0.707031 19.441406 0.398438 C 20.1875 0.398438 20.933594 0.398438 21.679688 0.398438 Z M 21.679688 0.398438 "/>
<path style=" stroke:none;fill-rule:evenodd;fill:rgb(11.764706%,12.941176%,12.54902%);fill-opacity:1;" d="M 22.160156 3.441406 C 22.351562 3.515625 22.457031 3.675781 22.480469 3.921875 C 22.449219 4.316406 22.339844 4.6875 22.160156 5.039062 C 22.050781 4.515625 22.050781 3.984375 22.160156 3.441406 Z M 22.160156 3.441406 "/>
<path style=" stroke:none;fill-rule:evenodd;fill:rgb(5.098039%,5.882353%,6.27451%);fill-opacity:1;" d="M 19.921875 3.441406 C 20.21875 3.78125 20.324219 4.207031 20.238281 4.71875 C 20.511719 4.695312 20.777344 4.722656 21.039062 4.800781 C 20.671875 4.878906 20.296875 4.90625 19.921875 4.878906 C 19.921875 4.398438 19.921875 3.921875 19.921875 3.441406 Z M 19.921875 3.441406 "/>
<path style=" stroke:none;fill-rule:evenodd;fill:rgb(10.588235%,11.372549%,11.764706%);fill-opacity:1;" d="M 18.480469 3.441406 C 18.691406 3.441406 18.90625 3.441406 19.121094 3.441406 C 19.1875 3.898438 19.347656 4.324219 19.601562 4.71875 C 19.546875 4.773438 19.492188 4.828125 19.441406 4.878906 C 18.980469 4.445312 18.578125 4.496094 18.238281 5.039062 C 18.167969 4.484375 18.246094 3.953125 18.480469 3.441406 Z M 18.480469 3.441406 "/>
<path style=" stroke:none;fill-rule:evenodd;fill:rgb(80.784314%,80.784314%,81.568627%);fill-opacity:1;" d="M 18.640625 3.921875 C 18.953125 3.992188 19.007812 4.152344 18.800781 4.398438 C 18.660156 4.269531 18.605469 4.109375 18.640625 3.921875 Z M 18.640625 3.921875 "/>
<path style=" stroke:none;fill-rule:evenodd;fill:rgb(10.588235%,10.588235%,10.980392%);fill-opacity:1;" d="M 17.359375 3.601562 C 17.671875 3.996094 17.832031 4.476562 17.839844 5.039062 C 17.394531 5.023438 17.078125 4.8125 16.878906 4.398438 C 16.753906 4.652344 16.671875 4.917969 16.640625 5.199219 C 16.429688 4.71875 16.402344 4.238281 16.558594 3.761719 C 16.824219 3.945312 17.0625 4.15625 17.28125 4.398438 C 17.359375 4.136719 17.386719 3.871094 17.359375 3.601562 Z M 17.359375 3.601562 "/>
<path style=" stroke:none;fill-rule:evenodd;fill:rgb(12.54902%,13.333333%,13.72549%);fill-opacity:1;" d="M 22.960938 3.601562 C 23.289062 3.90625 23.53125 4.277344 23.679688 4.71875 C 23.765625 4.378906 23.898438 4.058594 24.078125 3.761719 C 24.132812 3.839844 24.1875 3.921875 24.238281 4 C 24.050781 4.4375 23.945312 4.890625 23.921875 5.359375 C 23.761719 5.359375 23.601562 5.359375 23.441406 5.359375 C 23.328125 4.226562 23.117188 4.171875 22.800781 5.199219 C 22.644531 4.652344 22.695312 4.117188 22.960938 3.601562 Z M 22.960938 3.601562 "/>
<path style=" stroke:none;fill-rule:evenodd;fill:rgb(11.764706%,12.941176%,13.333333%);fill-opacity:1;" d="M 14.640625 4.078125 C 16.085938 3.945312 16.40625 4.453125 15.601562 5.601562 C 14.835938 5.824219 14.464844 5.53125 14.480469 4.71875 C 14.535156 4.503906 14.589844 4.289062 14.640625 4.078125 Z M 14.640625 4.078125 "/>
<path style=" stroke:none;fill-rule:evenodd;fill:rgb(89.803922%,90.980392%,91.372549%);fill-opacity:1;" d="M 14.800781 4.398438 C 15.539062 4.226562 15.832031 4.492188 15.679688 5.199219 C 14.988281 5.4375 14.695312 5.171875 14.800781 4.398438 Z M 14.800781 4.398438 "/>
<path style=" stroke:none;fill-rule:evenodd;fill:rgb(14.901961%,16.470588%,16.078431%);fill-opacity:1;" d="M 26.320312 4.71875 C 26.722656 4.796875 27.09375 4.957031 27.441406 5.199219 C 27.242188 5.324219 27.03125 5.40625 26.800781 5.441406 C 26.644531 5.78125 26.429688 6.074219 26.160156 6.320312 C 26.105469 6.265625 26.054688 6.214844 26 6.160156 C 26.363281 5.710938 26.46875 5.230469 26.320312 4.71875 Z M 26.320312 4.71875 "/>
<path style=" stroke:none;fill-rule:evenodd;fill:rgb(14.509804%,16.078431%,15.686275%);fill-opacity:1;" d="M 12.71875 4.878906 C 12.941406 4.855469 13.152344 4.882812 13.359375 4.960938 C 13.210938 5.023438 13.105469 5.128906 13.039062 5.28125 C 13.242188 5.574219 13.402344 5.894531 13.519531 6.238281 C 13.464844 6.320312 13.414062 6.398438 13.359375 6.480469 C 13.121094 6.105469 12.878906 5.734375 12.640625 5.359375 C 12.449219 5.558594 12.265625 5.558594 12.078125 5.359375 C 12.347656 5.257812 12.5625 5.097656 12.71875 4.878906 Z M 12.71875 4.878906 "/>
<path style=" stroke:none;fill-rule:evenodd;fill:rgb(12.156863%,13.72549%,14.117647%);fill-opacity:1;" d="M 13.679688 4.558594 C 14.019531 4.785156 14.257812 5.105469 14.398438 5.519531 C 14.519531 5.703125 14.492188 5.863281 14.320312 6 C 14.042969 5.539062 13.828125 5.0625 13.679688 4.558594 Z M 13.679688 4.558594 "/>
<path style=" stroke:none;fill-rule:evenodd;fill:rgb(13.333333%,14.117647%,14.117647%);fill-opacity:1;" d="M 24.558594 4.238281 C 24.925781 4.199219 25.273438 4.253906 25.601562 4.398438 C 25.710938 4.53125 25.683594 4.640625 25.519531 4.71875 C 25.339844 4.433594 25.128906 4.378906 24.878906 4.558594 C 25.015625 4.773438 25.203125 4.933594 25.441406 5.039062 C 25.453125 5.910156 25.078125 6.070312 24.320312 5.519531 C 24.289062 4.917969 24.421875 4.890625 24.71875 5.441406 C 24.902344 5.558594 25.0625 5.535156 25.199219 5.359375 C 25.066406 5.144531 24.878906 4.984375 24.640625 4.878906 C 24.5625 4.671875 24.535156 4.460938 24.558594 4.238281 Z M 24.558594 4.238281 "/>
<path style=" stroke:none;fill-rule:evenodd;fill:rgb(13.333333%,14.901961%,15.294118%);fill-opacity:1;" d="M 27.601562 5.359375 C 27.738281 5.339844 27.847656 5.390625 27.921875 5.519531 C 27.734375 6 27.464844 6.425781 27.121094 6.800781 C 27.066406 6.746094 27.011719 6.691406 26.960938 6.640625 C 27.175781 6.203125 27.390625 5.777344 27.601562 5.359375 Z M 27.601562 5.359375 "/>
<path style=" stroke:none;fill-rule:evenodd;fill:rgb(14.901961%,16.078431%,16.470588%);fill-opacity:1;" d="M 11.441406 7.441406 C 11.46875 6.976562 11.414062 6.523438 11.28125 6.078125 C 11.300781 5.910156 11.378906 5.777344 11.519531 5.679688 C 11.949219 6.03125 12.40625 6.351562 12.878906 6.640625 C 12.625 6.65625 12.359375 6.710938 12.078125 6.800781 C 11.929688 6.988281 11.878906 7.203125 11.921875 7.441406 C 11.761719 7.441406 11.601562 7.441406 11.441406 7.441406 Z M 11.441406 7.441406 "/>
<path style=" stroke:none;fill-rule:evenodd;fill:rgb(8.627451%,9.803922%,10.196078%);fill-opacity:1;" d="M 28.238281 5.679688 C 28.628906 5.878906 29.003906 6.121094 29.359375 6.398438 C 29.191406 6.480469 29.03125 6.453125 28.878906 6.320312 C 27.804688 7.632812 27.699219 7.578125 28.558594 6.160156 C 28.382812 6.039062 28.273438 5.878906 28.238281 5.679688 Z M 28.238281 5.679688 "/>
<path style=" stroke:none;fill-rule:evenodd;fill:rgb(14.901961%,15.294118%,12.156863%);fill-opacity:1;" d="M 18.160156 5.679688 C 25.0625 5.355469 29.890625 8.34375 32.640625 14.640625 C 34.277344 21.792969 31.847656 27.042969 25.359375 30.398438 C 18.835938 32.796875 13.367188 31.332031 8.960938 26 C 5.769531 20.863281 5.875 15.796875 9.28125 10.800781 C 11.644531 8.03125 14.601562 6.324219 18.160156 5.679688 Z M 18.160156 5.679688 "/>
<path style=" stroke:none;fill-rule:evenodd;fill:rgb(93.72549%,93.72549%,80.392157%);fill-opacity:1;" d="M 28.078125 8.878906 C 27.25 8.515625 26.449219 8.085938 25.679688 7.601562 C 25.585938 7.632812 25.507812 7.6875 25.441406 7.761719 C 25.359375 7.574219 25.226562 7.441406 25.039062 7.359375 C 24.527344 7.328125 24.050781 7.195312 23.601562 6.960938 C 23.242188 7.101562 22.972656 6.96875 22.800781 6.558594 C 21.152344 6.320312 19.5 6.265625 17.839844 6.398438 C 17.074219 6.726562 16.273438 6.859375 15.441406 6.800781 C 19.355469 5.464844 23.144531 5.8125 26.800781 7.839844 C 27.257812 8.164062 27.683594 8.511719 28.078125 8.878906 Z M 28.078125 8.878906 "/>
<path style=" stroke:none;fill-rule:evenodd;fill:rgb(11.764706%,13.333333%,13.333333%);fill-opacity:1;" d="M 29.519531 6.640625 C 29.660156 6.617188 29.765625 6.671875 29.839844 6.800781 C 29.5625 7.078125 29.351562 7.394531 29.199219 7.761719 C 29.261719 7.957031 29.394531 8.0625 29.601562 8.078125 C 29.867188 7.789062 30.160156 7.519531 30.480469 7.28125 C 30.535156 7.332031 30.585938 7.386719 30.640625 7.441406 C 30.324219 8.054688 29.84375 8.347656 29.199219 8.320312 C 28.992188 8.191406 28.882812 8.003906 28.878906 7.761719 C 29.097656 7.386719 29.308594 7.011719 29.519531 6.640625 Z M 29.519531 6.640625 "/>
<path style=" stroke:none;fill-rule:evenodd;fill:rgb(12.54902%,13.333333%,13.333333%);fill-opacity:1;" d="M 11.441406 7.441406 C 11.394531 7.625 11.261719 7.730469 11.039062 7.761719 C 10.683594 7.644531 10.339844 7.566406 10 7.519531 C 10.1875 7.707031 10.375 7.894531 10.558594 8.078125 C 10.671875 8.214844 10.644531 8.320312 10.480469 8.398438 C 10.164062 8.03125 9.84375 7.65625 9.519531 7.28125 C 9.835938 7.085938 10.15625 7.085938 10.480469 7.28125 C 10.535156 7.226562 10.585938 7.171875 10.640625 7.121094 C 10.425781 6.941406 10.347656 6.726562 10.398438 6.480469 C 10.734375 6.839844 11.078125 7.160156 11.441406 7.441406 Z M 11.441406 7.441406 "/>
<path style=" stroke:none;fill-rule:evenodd;fill:rgb(15.294118%,16.862745%,17.647059%);fill-opacity:1;" d="M 30.800781 7.761719 C 31.210938 7.902344 31.53125 8.171875 31.761719 8.558594 C 31.585938 8.601562 31.375 8.625 31.121094 8.640625 C 30.878906 8.910156 30.609375 9.148438 30.320312 9.359375 C 30.15625 9.28125 30.128906 9.171875 30.238281 9.039062 C 30.796875 8.734375 30.984375 8.308594 30.800781 7.761719 Z M 30.800781 7.761719 "/>
<path style=" stroke:none;fill-rule:evenodd;fill:rgb(11.372549%,12.156863%,12.941176%);fill-opacity:1;" d="M 8.558594 9.199219 C 8.59375 9.5 8.753906 9.714844 9.039062 9.839844 C 8.480469 9.878906 8.054688 9.613281 7.761719 9.039062 C 8.238281 8.023438 8.71875 7.996094 9.199219 8.960938 C 9.359375 9.011719 9.519531 9.066406 9.679688 9.121094 C 9.308594 9.199219 8.9375 9.226562 8.558594 9.199219 Z M 8.558594 9.199219 "/>
<path style=" stroke:none;fill-rule:evenodd;fill:rgb(76.862745%,77.254902%,78.431373%);fill-opacity:1;" d="M 8.558594 9.199219 C 7.96875 9.082031 7.96875 8.867188 8.558594 8.558594 C 8.738281 8.769531 8.738281 8.984375 8.558594 9.199219 Z M 8.558594 9.199219 "/>
<path style=" stroke:none;fill-rule:evenodd;fill:rgb(14.901961%,16.078431%,16.862745%);fill-opacity:1;" d="M 31.921875 8.878906 C 32.464844 9.019531 32.679688 9.339844 32.558594 9.839844 C 32.433594 9.640625 32.273438 9.480469 32.078125 9.359375 C 31.945312 9.609375 31.996094 9.851562 32.238281 10.078125 C 31.984375 10.097656 31.742188 10.019531 31.519531 9.839844 C 31.441406 9.894531 31.359375 9.945312 31.28125 10 C 31.441406 10.214844 31.601562 10.425781 31.761719 10.640625 C 31.707031 10.691406 31.652344 10.746094 31.601562 10.800781 C 31.351562 10.527344 31.140625 10.234375 30.960938 9.921875 C 31.300781 9.605469 31.621094 9.257812 31.921875 8.878906 Z M 31.921875 8.878906 "/>
<path style=" stroke:none;fill-rule:evenodd;fill:rgb(10.588235%,11.764706%,11.764706%);fill-opacity:1;" d="M 6.800781 9.839844 C 7.40625 9.925781 7.992188 10.085938 8.558594 10.320312 C 8.289062 10.4375 8.050781 10.597656 7.839844 10.800781 C 8.011719 11.625 7.664062 11.996094 6.800781 11.921875 C 6.796875 12.183594 6.902344 12.394531 7.121094 12.558594 C 6.570312 12.652344 6.089844 12.464844 5.679688 12 C 5.847656 11.921875 6.007812 11.949219 6.160156 12.078125 C 6.214844 12 6.265625 11.921875 6.320312 11.839844 C 6.175781 11.554688 6.148438 11.261719 6.238281 10.960938 C 6.511719 11.503906 6.964844 11.71875 7.601562 11.601562 C 7.398438 10.976562 7.132812 10.390625 6.800781 9.839844 Z M 6.800781 9.839844 "/>
<path style=" stroke:none;fill-rule:evenodd;fill:rgb(98.823529%,98.039216%,78.039216%);fill-opacity:1;" d="M 28.078125 8.878906 C 31.808594 11.804688 33.378906 15.644531 32.800781 20.398438 C 31.628906 26.210938 28.132812 29.757812 22.320312 31.039062 C 15.679688 31.894531 10.851562 29.359375 7.839844 23.441406 C 5.816406 17.460938 7.230469 12.472656 12.078125 8.480469 C 13.113281 7.75 14.234375 7.191406 15.441406 6.800781 C 16.273438 6.859375 17.074219 6.726562 17.839844 6.398438 C 19.5 6.265625 21.152344 6.320312 22.800781 6.558594 C 22.972656 6.96875 23.242188 7.101562 23.601562 6.960938 C 24.050781 7.195312 24.527344 7.328125 25.039062 7.359375 C 25.226562 7.441406 25.359375 7.574219 25.441406 7.761719 C 25.507812 7.6875 25.585938 7.632812 25.679688 7.601562 C 26.449219 8.085938 27.25 8.515625 28.078125 8.878906 Z M 28.078125 8.878906 "/>
<path style=" stroke:none;fill-rule:evenodd;fill:rgb(74.117647%,73.72549%,74.901961%);fill-opacity:1;" d="M 7.28125 10.160156 C 7.519531 10.144531 7.679688 10.253906 7.761719 10.480469 C 7.457031 10.664062 7.296875 10.554688 7.28125 10.160156 Z M 7.28125 10.160156 "/>
<path style=" stroke:none;fill-rule:evenodd;fill:rgb(92.941176%,47.058824%,17.254902%);fill-opacity:1;" d="M 23.28125 11.921875 C 23.304688 11.59375 23.277344 11.277344 23.199219 10.960938 C 22.964844 11.453125 22.671875 11.90625 22.320312 12.320312 C 22.070312 12.441406 21.855469 12.414062 21.679688 12.238281 C 21.839844 12.238281 22 12.238281 22.160156 12.238281 C 22.804688 10.792969 23.578125 9.40625 24.480469 8.078125 C 24.097656 9.367188 23.695312 10.644531 23.28125 11.921875 Z M 23.28125 11.921875 "/>
<path style=" stroke:none;fill-rule:evenodd;fill:rgb(92.941176%,46.27451%,16.078431%);fill-opacity:1;" d="M 17.359375 11.441406 C 17.199219 11.453125 17.066406 11.398438 16.960938 11.28125 C 16.878906 11.8125 16.855469 12.34375 16.878906 12.878906 C 16.433594 12.972656 16.167969 12.8125 16.078125 12.398438 C 16.238281 12.503906 16.398438 12.609375 16.558594 12.71875 C 16.613281 12.613281 16.667969 12.507812 16.71875 12.398438 C 16.214844 10.972656 15.816406 9.53125 15.519531 8.078125 C 16.207031 9.160156 16.820312 10.28125 17.359375 11.441406 Z M 17.359375 11.441406 "/>
<path style=" stroke:none;fill-rule:evenodd;fill:rgb(94.901961%,71.764706%,45.490196%);fill-opacity:1;" d="M 18.800781 10.960938 C 18.695312 10.910156 18.589844 10.859375 18.480469 10.800781 C 18.375 11.25 18.265625 11.675781 18.160156 12.078125 C 18.117188 11.421875 18.199219 10.785156 18.398438 10.160156 C 18.574219 10.414062 18.707031 10.679688 18.800781 10.960938 Z M 18.800781 10.960938 "/>
<path style=" stroke:none;fill-rule:evenodd;fill:rgb(89.411765%,51.764706%,25.098039%);fill-opacity:1;" d="M 16.078125 12.398438 C 15.921875 12.414062 15.789062 12.359375 15.679688 12.238281 C 15.601562 12.390625 15.574219 12.550781 15.601562 12.71875 C 14.878906 11.199219 15.039062 11.09375 16.078125 12.398438 Z M 16.078125 12.398438 "/>
<path style=" stroke:none;fill-rule:evenodd;fill:rgb(10.196078%,11.764706%,12.156863%);fill-opacity:1;" d="M 32.878906 10.960938 C 33.808594 11.003906 34.125 11.457031 33.839844 12.320312 C 32.824219 12.835938 32.371094 12.542969 32.480469 11.441406 C 32.589844 11.25 32.726562 11.089844 32.878906 10.960938 Z M 32.878906 10.960938 "/>
<path style=" stroke:none;fill-rule:evenodd;fill:rgb(85.882353%,87.45098%,87.45098%);fill-opacity:1;" d="M 33.039062 11.28125 C 33.65625 11.3125 33.816406 11.605469 33.519531 12.160156 C 33.210938 12.277344 32.917969 12.253906 32.640625 12.078125 C 32.527344 11.6875 32.660156 11.421875 33.039062 11.28125 Z M 33.039062 11.28125 "/>
<path style=" stroke:none;fill-rule:evenodd;fill:rgb(92.941176%,45.490196%,15.294118%);fill-opacity:1;" d="M 15.601562 12.71875 C 15.882812 12.886719 15.988281 13.15625 15.921875 13.519531 C 15.328125 13.554688 14.796875 13.394531 14.320312 13.039062 C 14.214844 13.066406 14.105469 13.09375 14 13.121094 C 14.121094 13.226562 14.171875 13.359375 14.160156 13.519531 C 13.3125 12.644531 12.484375 11.738281 11.679688 10.800781 C 11.570312 10.667969 11.597656 10.558594 11.761719 10.480469 C 12.957031 11.480469 14.183594 12.4375 15.441406 13.359375 C 15.589844 13.167969 15.640625 12.957031 15.601562 12.71875 Z M 15.601562 12.71875 "/>
<path style=" stroke:none;fill-rule:evenodd;fill:rgb(10.196078%,11.372549%,12.156863%);fill-opacity:1;" d="M 34 12.558594 C 34.503906 12.566406 34.773438 12.832031 34.800781 13.359375 C 34.746094 13.414062 34.691406 13.464844 34.640625 13.519531 C 34.535156 13.257812 34.375 13.042969 34.160156 12.878906 C 34.082031 13.15625 34.027344 13.421875 34 13.679688 C 33.859375 13.546875 33.804688 13.386719 33.839844 13.199219 C 33.527344 13.25 33.261719 13.25 33.039062 13.199219 C 33.34375 12.957031 33.664062 12.742188 34 12.558594 Z M 34 12.558594 "/>
<path style=" stroke:none;fill-rule:evenodd;fill:rgb(11.764706%,12.941176%,13.333333%);fill-opacity:1;" d="M 5.359375 12.71875 C 6.054688 12.566406 6.535156 12.804688 6.800781 13.441406 C 6.75 13.839844 6.535156 14.078125 6.160156 14.160156 C 5.796875 14.003906 5.425781 13.898438 5.039062 13.839844 C 5.023438 13.425781 5.128906 13.054688 5.359375 12.71875 Z M 5.359375 12.71875 "/>
<path style=" stroke:none;fill-rule:evenodd;fill:rgb(88.627451%,89.019608%,89.411765%);fill-opacity:1;" d="M 5.519531 13.039062 C 6.101562 12.9375 6.394531 13.152344 6.398438 13.679688 C 5.980469 13.882812 5.632812 13.777344 5.359375 13.359375 C 5.417969 13.25 5.472656 13.144531 5.519531 13.039062 Z M 5.519531 13.039062 "/>
<path style=" stroke:none;fill-rule:evenodd;fill:rgb(86.27451%,60%,38.039216%);fill-opacity:1;" d="M 10.480469 14.640625 C 10.320312 14.613281 10.214844 14.664062 10.160156 14.800781 C 9.746094 14.699219 9.371094 14.511719 9.039062 14.238281 C 9.566406 14.230469 10.046875 14.363281 10.480469 14.640625 Z M 10.480469 14.640625 "/>
<path style=" stroke:none;fill-rule:evenodd;fill:rgb(89.019608%,56.470588%,30.980392%);fill-opacity:1;" d="M 29.519531 14.960938 C 29.238281 14.886719 28.917969 14.886719 28.558594 14.960938 C 29.140625 14.710938 29.753906 14.5 30.398438 14.320312 C 30.65625 14.394531 30.683594 14.503906 30.480469 14.640625 C 30.167969 14.78125 29.847656 14.886719 29.519531 14.960938 Z M 29.519531 14.960938 "/>
<path style=" stroke:none;fill-rule:evenodd;fill:rgb(92.54902%,46.666667%,16.862745%);fill-opacity:1;" d="M 25.839844 15.601562 C 25.710938 15.367188 25.632812 15.101562 25.601562 14.800781 C 25.367188 15.019531 25.234375 14.96875 25.199219 14.640625 C 25.867188 14.304688 26.5625 14.0625 27.28125 13.921875 C 26.703125 14.414062 26.222656 14.976562 25.839844 15.601562 Z M 25.839844 15.601562 "/>
<path style=" stroke:none;fill-rule:evenodd;fill:rgb(91.764706%,45.490196%,16.470588%);fill-opacity:1;" d="M 10.480469 14.640625 C 11.546875 14.90625 12.613281 15.171875 13.679688 15.441406 C 13.613281 15.539062 13.507812 15.59375 13.359375 15.601562 C 12.835938 15.414062 12.300781 15.335938 11.761719 15.359375 C 12.09375 15.472656 12.359375 15.660156 12.558594 15.921875 C 11.699219 15.675781 10.902344 15.304688 10.160156 14.800781 C 10.214844 14.664062 10.320312 14.613281 10.480469 14.640625 Z M 10.480469 14.640625 "/>
<path style=" stroke:none;fill-rule:evenodd;fill:rgb(9.411765%,11.372549%,11.764706%);fill-opacity:1;" d="M 35.441406 15.761719 C 35.222656 15.679688 35.0625 15.519531 34.960938 15.28125 C 34.542969 15.449219 34.117188 15.476562 33.679688 15.359375 C 34.082031 15.160156 34.507812 15.078125 34.960938 15.121094 C 34.925781 14.933594 34.976562 14.773438 35.121094 14.640625 C 35.300781 14.992188 35.40625 15.367188 35.441406 15.761719 Z M 35.441406 15.761719 "/>
<path style=" stroke:none;fill-rule:evenodd;fill:rgb(12.941176%,14.509804%,14.117647%);fill-opacity:1;" d="M 4.71875 14.160156 C 4.878906 14.15625 4.984375 14.234375 5.039062 14.398438 C 4.871094 14.652344 4.871094 14.890625 5.039062 15.121094 C 5.554688 14.050781 5.714844 14.101562 5.519531 15.28125 C 5.679688 15.28125 5.839844 15.28125 6 15.28125 C 5.957031 14.972656 6.035156 14.703125 6.238281 14.480469 C 6.292969 14.855469 6.265625 15.230469 6.160156 15.601562 C 5.667969 15.59375 5.1875 15.511719 4.71875 15.359375 C 4.566406 14.972656 4.566406 14.570312 4.71875 14.160156 Z M 4.71875 14.160156 "/>
<path style=" stroke:none;fill-rule:evenodd;fill:rgb(47.058824%,50.588235%,49.411765%);fill-opacity:1;" d="M 0.71875 15.441406 C 0.71875 15.652344 0.71875 15.867188 0.71875 16.078125 C 0.925781 16.042969 1.085938 16.09375 1.199219 16.238281 C 0.988281 16.238281 0.773438 16.238281 0.558594 16.238281 C 0.515625 15.933594 0.566406 15.667969 0.71875 15.441406 Z M 0.71875 15.441406 "/>
<path style=" stroke:none;fill-rule:evenodd;fill:rgb(11.764706%,12.941176%,13.72549%);fill-opacity:1;" d="M 35.601562 16.078125 C 35.601562 16.1875 35.601562 16.292969 35.601562 16.398438 C 35.625 16.671875 35.597656 16.9375 35.519531 17.199219 C 35.238281 16.167969 35.027344 16.167969 34.878906 17.199219 C 34.800781 16.992188 34.773438 16.78125 34.800781 16.558594 C 34.640625 16.558594 34.480469 16.558594 34.320312 16.558594 C 34.367188 16.847656 34.3125 17.113281 34.160156 17.359375 C 34.003906 17 33.949219 16.628906 34 16.238281 C 34.527344 16.125 35.058594 16.074219 35.601562 16.078125 Z M 35.601562 16.078125 "/>
<path style=" stroke:none;fill-rule:evenodd;fill:rgb(92.54902%,63.529412%,38.431373%);fill-opacity:1;" d="M 13.199219 16.71875 C 12.75 16.851562 12.269531 16.929688 11.761719 16.960938 C 11.847656 17.019531 11.902344 17.101562 11.921875 17.199219 C 11.613281 17.152344 11.34375 17.019531 11.121094 16.800781 C 11.8125 16.71875 12.503906 16.695312 13.199219 16.71875 Z M 13.199219 16.71875 "/>
<path style=" stroke:none;fill-rule:evenodd;fill:rgb(10.196078%,11.372549%,11.372549%);fill-opacity:1;" d="M 4.398438 15.921875 C 4.875 16.085938 5.351562 16.085938 5.839844 15.921875 C 5.839844 16.347656 5.839844 16.773438 5.839844 17.199219 C 5.308594 17.199219 4.773438 17.199219 4.238281 17.199219 C 4.203125 16.753906 4.257812 16.328125 4.398438 15.921875 Z M 4.398438 15.921875 "/>
<path style=" stroke:none;fill-rule:evenodd;fill:rgb(80.392157%,81.960784%,82.745098%);fill-opacity:1;" d="M 5.199219 16.238281 C 5.359375 16.238281 5.519531 16.238281 5.679688 16.238281 C 5.679688 16.453125 5.679688 16.667969 5.679688 16.878906 C 5.519531 16.878906 5.359375 16.878906 5.199219 16.878906 C 5.199219 16.667969 5.199219 16.453125 5.199219 16.238281 Z M 5.199219 16.238281 "/>
<path style=" stroke:none;fill-rule:evenodd;fill:rgb(87.058824%,87.843137%,87.45098%);fill-opacity:1;" d="M 4.558594 16.238281 C 4.734375 16.257812 4.839844 16.367188 4.878906 16.558594 C 4.828125 16.667969 4.773438 16.773438 4.71875 16.878906 C 4.570312 16.691406 4.519531 16.476562 4.558594 16.238281 Z M 4.558594 16.238281 "/>
<path style=" stroke:none;fill-rule:evenodd;fill:rgb(45.882353%,48.235294%,47.45098%);fill-opacity:1;" d="M 5.359375 18.160156 C 5.132812 18.125 4.917969 18.046875 4.71875 17.921875 C 5.039062 17.867188 5.359375 17.8125 5.679688 17.761719 C 5.191406 17.628906 4.710938 17.65625 4.238281 17.839844 C 4.296875 17.949219 4.351562 18.054688 4.398438 18.160156 C 4.132812 18.050781 4.023438 17.835938 4.078125 17.519531 C 4.667969 17.519531 5.253906 17.519531 5.839844 17.519531 C 5.839844 17.679688 5.839844 17.839844 5.839844 18 C 5.632812 17.960938 5.472656 18.015625 5.359375 18.160156 Z M 5.359375 18.160156 "/>
<path style=" stroke:none;fill-rule:evenodd;fill:rgb(11.764706%,13.333333%,14.117647%);fill-opacity:1;" d="M 35.761719 18.640625 C 35.761719 18.691406 35.761719 18.746094 35.761719 18.800781 C 35.589844 18.96875 35.429688 18.96875 35.28125 18.800781 C 35.410156 18.546875 35.460938 18.28125 35.441406 18 C 35.074219 17.960938 34.726562 18.011719 34.398438 18.160156 C 34.3125 18.421875 34.394531 18.636719 34.640625 18.800781 C 34.421875 18.976562 34.234375 18.921875 34.078125 18.640625 C 34 18 34.292969 17.679688 34.960938 17.679688 C 35.570312 17.707031 35.839844 18.027344 35.761719 18.640625 Z M 35.761719 18.640625 "/>
<path style=" stroke:none;fill-rule:evenodd;fill:rgb(12.54902%,13.72549%,13.72549%);fill-opacity:1;" d="M 5.359375 18.160156 C 5.609375 18.210938 5.714844 18.371094 5.679688 18.640625 C 4.851562 18.648438 4.851562 18.753906 5.679688 18.960938 C 5.15625 19.117188 4.625 19.171875 4.078125 19.121094 C 4.128906 18.664062 4.394531 18.425781 4.878906 18.398438 C 4.761719 18.234375 4.601562 18.152344 4.398438 18.160156 C 4.351562 18.054688 4.296875 17.949219 4.238281 17.839844 C 4.710938 17.65625 5.191406 17.628906 5.679688 17.761719 C 5.359375 17.8125 5.039062 17.867188 4.71875 17.921875 C 4.917969 18.046875 5.132812 18.125 5.359375 18.160156 Z M 5.359375 18.160156 "/>
<path style=" stroke:none;fill-rule:evenodd;fill:rgb(90.588235%,45.490196%,16.470588%);fill-opacity:1;" d="M 13.039062 17.519531 C 13.25 17.742188 13.25 17.980469 13.039062 18.238281 C 12.507812 18.292969 11.972656 18.347656 11.441406 18.398438 C 11.128906 18.417969 10.917969 18.554688 10.800781 18.800781 C 9.933594 18.84375 9.082031 18.761719 8.238281 18.558594 C 9.769531 18.261719 11.316406 18.101562 12.878906 18.078125 C 13.015625 17.917969 13.066406 17.730469 13.039062 17.519531 Z M 13.039062 17.519531 "/>
<path style=" stroke:none;fill-rule:evenodd;fill:rgb(92.156863%,53.333333%,23.529412%);fill-opacity:1;" d="M 10.800781 18.800781 C 11.601562 18.839844 12.402344 18.894531 13.199219 18.960938 C 13.238281 19.167969 13.183594 19.328125 13.039062 19.441406 C 12.339844 19.125 11.59375 18.910156 10.800781 18.800781 Z M 10.800781 18.800781 "/>
<path style=" stroke:none;fill-rule:evenodd;fill:rgb(39.607843%,43.137255%,43.921569%);fill-opacity:1;" d="M 37.039062 18.320312 C 36.945312 18.816406 36.839844 19.296875 36.71875 19.761719 C 36.632812 19.199219 36.738281 18.71875 37.039062 18.320312 Z M 37.039062 18.320312 "/>
<path style=" stroke:none;fill-rule:evenodd;fill:rgb(12.941176%,14.117647%,14.901961%);fill-opacity:1;" d="M 35.601562 19.441406 C 35.6875 19.449219 35.738281 19.503906 35.761719 19.601562 C 35.511719 19.753906 35.246094 19.804688 34.960938 19.761719 C 34.960938 19.972656 34.960938 20.1875 34.960938 20.398438 C 35.277344 20.34375 35.492188 20.453125 35.601562 20.71875 C 35.441406 20.71875 35.28125 20.71875 35.121094 20.71875 C 34.65625 20.800781 34.285156 20.695312 34 20.398438 C 34.265625 20.398438 34.535156 20.398438 34.800781 20.398438 C 34.800781 20.132812 34.800781 19.867188 34.800781 19.601562 C 34.582031 19.625 34.367188 19.597656 34.160156 19.519531 C 34.636719 19.441406 35.117188 19.414062 35.601562 19.441406 Z M 35.601562 19.441406 "/>
<path style=" stroke:none;fill-rule:evenodd;fill:rgb(51.764706%,53.72549%,54.901961%);fill-opacity:1;" d="M 35.601562 19.441406 C 35.117188 19.414062 34.636719 19.441406 34.160156 19.519531 C 34.367188 19.597656 34.582031 19.625 34.800781 19.601562 C 34.800781 19.867188 34.800781 20.132812 34.800781 20.398438 C 34.535156 20.398438 34.265625 20.398438 34 20.398438 C 34.171875 20.25 34.382812 20.195312 34.640625 20.238281 C 34.640625 20.078125 34.640625 19.921875 34.640625 19.761719 C 34.425781 19.761719 34.214844 19.761719 34 19.761719 C 34 19.601562 34 19.441406 34 19.28125 C 34.566406 19.230469 35.101562 19.285156 35.601562 19.441406 Z M 35.601562 19.441406 "/>
<path style=" stroke:none;fill-rule:evenodd;fill:rgb(11.764706%,13.333333%,13.333333%);fill-opacity:1;" d="M 5.359375 19.441406 C 5.5 19.417969 5.605469 19.472656 5.679688 19.601562 C 5.542969 19.90625 5.492188 20.226562 5.519531 20.558594 C 5.707031 20.523438 5.867188 20.578125 6 20.71875 C 5.921875 20.773438 5.839844 20.828125 5.761719 20.878906 C 5.277344 20.660156 4.769531 20.554688 4.238281 20.558594 C 4.214844 20.390625 4.242188 20.230469 4.320312 20.078125 C 4.691406 19.882812 5.035156 19.667969 5.359375 19.441406 Z M 5.359375 19.441406 "/>
<path style=" stroke:none;fill-rule:evenodd;fill:rgb(75.686275%,78.039216%,78.039216%);fill-opacity:1;" d="M 4.878906 20.078125 C 5.175781 20.101562 5.226562 20.207031 5.039062 20.398438 C 4.914062 20.328125 4.859375 20.21875 4.878906 20.078125 Z M 4.878906 20.078125 "/>
<path style=" stroke:none;fill-rule:evenodd;fill:rgb(89.803922%,96.470588%,96.470588%);fill-opacity:1;" d="M 37.039062 18.320312 C 36.738281 18.71875 36.632812 19.199219 36.71875 19.761719 C 36.71875 20.1875 36.71875 20.613281 36.71875 21.039062 C 37.625 21.171875 38.53125 21.277344 39.441406 21.359375 C 39.304688 22.378906 39.144531 23.390625 38.960938 24.398438 C 38.042969 24.3125 37.132812 24.15625 36.238281 23.921875 C 35.945312 24.03125 35.757812 24.242188 35.679688 24.558594 C 35.515625 25.125 35.332031 25.6875 35.121094 26.238281 C 35.878906 26.777344 36.675781 27.230469 37.519531 27.601562 C 37.152344 28.441406 36.699219 29.238281 36.160156 30 C 36.050781 30.121094 35.917969 30.171875 35.761719 30.160156 C 35.582031 29.621094 35.261719 29.167969 34.800781 28.800781 C 34.601562 28.726562 34.46875 28.808594 34.398438 29.039062 C 34.148438 28.792969 33.855469 28.605469 33.519531 28.480469 C 33.625 28.425781 33.734375 28.375 33.839844 28.320312 C 33.550781 28.269531 33.5 28.164062 33.679688 28 C 33.414062 27.839844 33.148438 27.679688 32.878906 27.519531 C 33.335938 27.367188 33.710938 27.101562 34 26.71875 C 33.613281 26.136719 33.722656 25.628906 34.320312 25.199219 C 34.59375 24.683594 34.808594 24.148438 34.960938 23.601562 C 35.003906 23.34375 34.949219 23.132812 34.800781 22.960938 C 34.898438 22.816406 34.949219 22.65625 34.960938 22.480469 C 35.101562 22.5 35.207031 22.449219 35.28125 22.320312 C 34.996094 22.210938 34.730469 22.078125 34.480469 21.921875 C 34.910156 21.789062 35.226562 21.550781 35.441406 21.199219 C 35.332031 21.039062 35.226562 20.878906 35.121094 20.71875 C 35.28125 20.71875 35.441406 20.71875 35.601562 20.71875 C 35.851562 20.261719 36.011719 19.757812 36.078125 19.199219 C 36.144531 19.046875 36.25 18.941406 36.398438 18.878906 C 36.191406 18.800781 35.980469 18.773438 35.761719 18.800781 C 35.761719 18.746094 35.761719 18.691406 35.761719 18.640625 C 35.898438 18.660156 36.007812 18.609375 36.078125 18.480469 C 36 17.851562 35.945312 17.1875 35.921875 16.480469 C 36.078125 16.425781 36.238281 16.375 36.398438 16.320312 C 36.117188 16.21875 35.851562 16.246094 35.601562 16.398438 C 35.601562 16.292969 35.601562 16.1875 35.601562 16.078125 C 35.546875 15.972656 35.492188 15.867188 35.441406 15.761719 C 35.542969 15.664062 35.652344 15.558594 35.761719 15.441406 C 35.941406 15.605469 36.152344 15.714844 36.398438 15.761719 C 36.835938 15.777344 37.15625 15.617188 37.359375 15.28125 C 37.984375 15.132812 38.625 15.078125 39.28125 15.121094 C 39.28125 16.09375 39.390625 17.054688 39.601562 18 C 38.738281 18.070312 37.886719 18.179688 37.039062 18.320312 Z M 37.039062 18.320312 "/>
<path style=" stroke:none;fill-rule:evenodd;fill:rgb(10.588235%,11.372549%,11.764706%);fill-opacity:1;" d="M 35.441406 21.199219 C 35.226562 21.550781 34.910156 21.789062 34.480469 21.921875 C 34.730469 22.078125 34.996094 22.210938 35.28125 22.320312 C 35.207031 22.449219 35.101562 22.5 34.960938 22.480469 C 33.355469 22.230469 33.300781 21.882812 34.800781 21.441406 C 34.519531 21.363281 34.253906 21.257812 34 21.121094 C 34.480469 21.070312 34.960938 21.097656 35.441406 21.199219 Z M 35.441406 21.199219 "/>
<path style=" stroke:none;fill-rule:evenodd;fill:rgb(21.176471%,24.705882%,24.705882%);fill-opacity:1;" d="M 5.839844 21.679688 C 6.132812 21.703125 6.1875 21.808594 6 22 C 5.871094 21.925781 5.820312 21.820312 5.839844 21.679688 Z M 5.839844 21.679688 "/>
<path style=" stroke:none;fill-rule:evenodd;fill:rgb(90.196078%,51.372549%,23.529412%);fill-opacity:1;" d="M 27.121094 22 C 27.628906 22.140625 28.109375 22.140625 28.558594 22 C 29.25 22.15625 29.890625 22.449219 30.480469 22.878906 C 29.300781 22.789062 28.183594 22.496094 27.121094 22 Z M 27.121094 22 "/>
<path style=" stroke:none;fill-rule:evenodd;fill:rgb(38.039216%,41.568627%,41.176471%);fill-opacity:1;" d="M 2.480469 22.480469 C 2.816406 22.324219 3.191406 22.273438 3.601562 22.320312 C 3.601562 22.480469 3.601562 22.640625 3.601562 22.800781 C 3.285156 22.535156 2.914062 22.429688 2.480469 22.480469 Z M 2.480469 22.480469 "/>
<path style=" stroke:none;fill-rule:evenodd;fill:rgb(89.803922%,56.078431%,32.54902%);fill-opacity:1;" d="M 10.960938 21.839844 C 10.886719 21.992188 10.78125 22.125 10.640625 22.238281 C 10.792969 22.316406 10.953125 22.34375 11.121094 22.320312 C 10.433594 22.703125 9.6875 22.890625 8.878906 22.878906 C 9.578125 22.53125 10.269531 22.183594 10.960938 21.839844 Z M 10.960938 21.839844 "/>
<path style=" stroke:none;fill-rule:evenodd;fill:rgb(90.588235%,56.078431%,30.588235%);fill-opacity:1;" d="M 13.679688 22.160156 C 13.5 22.421875 13.285156 22.660156 13.039062 22.878906 C 13.078125 22.945312 13.128906 22.96875 13.199219 22.960938 C 12.992188 23.214844 12.726562 23.296875 12.398438 23.199219 C 12.761719 22.753906 13.191406 22.40625 13.679688 22.160156 Z M 13.679688 22.160156 "/>
<path style=" stroke:none;fill-rule:evenodd;fill:rgb(14.117647%,15.294118%,16.078431%);fill-opacity:1;" d="M 34.800781 22.960938 C 34.949219 23.132812 35.003906 23.34375 34.960938 23.601562 C 34.835938 23.707031 34.730469 23.839844 34.640625 24 C 33.601562 24.347656 33.148438 24 33.28125 22.960938 C 33.785156 22.542969 34.292969 22.542969 34.800781 22.960938 Z M 34.800781 22.960938 "/>
<path style=" stroke:none;fill-rule:evenodd;fill:rgb(91.764706%,94.509804%,94.509804%);fill-opacity:1;" d="M 33.679688 22.960938 C 34.246094 22.863281 34.539062 23.074219 34.558594 23.601562 C 33.773438 23.949219 33.480469 23.734375 33.679688 22.960938 Z M 33.679688 22.960938 "/>
<path style=" stroke:none;fill-rule:evenodd;fill:rgb(13.72549%,15.294118%,16.078431%);fill-opacity:1;" d="M 5.519531 23.921875 C 5.332031 23.953125 5.171875 23.902344 5.039062 23.761719 C 4.898438 23.402344 4.847656 23.027344 4.878906 22.640625 C 5.148438 22.640625 5.414062 22.640625 5.679688 22.640625 C 5.886719 22.511719 6.074219 22.355469 6.238281 22.160156 C 6.347656 22.320312 6.347656 22.480469 6.238281 22.640625 C 5.714844 23.117188 5.847656 23.355469 6.640625 23.359375 C 6.246094 23.523438 5.871094 23.710938 5.519531 23.921875 Z M 5.519531 23.921875 "/>
<path style=" stroke:none;fill-rule:evenodd;fill:rgb(90.980392%,91.372549%,92.156863%);fill-opacity:1;" d="M 5.199219 22.960938 C 5.753906 23.230469 5.753906 23.390625 5.199219 23.441406 C 5.199219 23.28125 5.199219 23.121094 5.199219 22.960938 Z M 5.199219 22.960938 "/>
<path style=" stroke:none;fill-rule:evenodd;fill:rgb(93.333333%,44.705882%,14.509804%);fill-opacity:1;" d="M 14.640625 22.960938 C 14.769531 23.269531 14.769531 23.539062 14.640625 23.761719 C 15.214844 23.515625 15.722656 23.621094 16.160156 24.078125 C 16.292969 23.839844 16.480469 23.757812 16.71875 23.839844 C 16.535156 23.984375 16.5625 24.121094 16.800781 24.238281 C 16.960938 24.996094 16.988281 25.742188 16.878906 26.480469 C 16.488281 27.15625 16.085938 27.851562 15.679688 28.558594 C 15.847656 27.191406 16.195312 25.859375 16.71875 24.558594 C 16.671875 24.429688 16.589844 24.324219 16.480469 24.238281 C 15.953125 24.605469 15.472656 25.035156 15.039062 25.519531 C 14.933594 25.308594 14.933594 25.09375 15.039062 24.878906 C 15.257812 24.582031 15.445312 24.261719 15.601562 23.921875 C 15.277344 23.832031 14.957031 23.914062 14.640625 24.160156 C 13.785156 24.90625 12.933594 25.652344 12.078125 26.398438 C 11.945312 26.511719 11.839844 26.484375 11.761719 26.320312 C 12.726562 25.191406 13.6875 24.074219 14.640625 22.960938 Z M 14.640625 22.960938 "/>
<path style=" stroke:none;fill-rule:evenodd;fill:rgb(12.54902%,16.078431%,16.078431%);fill-opacity:1;" d="M 6.480469 23.761719 C 6.773438 23.78125 6.828125 23.890625 6.640625 24.078125 C 6.511719 24.007812 6.460938 23.898438 6.480469 23.761719 Z M 6.480469 23.761719 "/>
<path style=" stroke:none;fill-rule:evenodd;fill:rgb(96.078431%,41.568627%,6.666667%);fill-opacity:1;" d="M 21.679688 12.238281 C 21.855469 12.414062 22.070312 12.441406 22.320312 12.320312 C 22.671875 11.90625 22.964844 11.453125 23.199219 10.960938 C 23.277344 11.277344 23.304688 11.59375 23.28125 11.921875 C 23.28125 11.972656 23.28125 12.027344 23.28125 12.078125 C 22.894531 12.269531 22.734375 12.589844 22.800781 13.039062 C 23.304688 13.125 23.703125 12.964844 24 12.558594 C 24.078125 12.765625 24.105469 12.980469 24.078125 13.199219 C 24.136719 13.476562 24.292969 13.554688 24.558594 13.441406 C 25.625 12.585938 26.691406 11.734375 27.761719 10.878906 C 27.894531 10.769531 28 10.796875 28.078125 10.960938 C 27.226562 11.925781 26.371094 12.886719 25.519531 13.839844 C 25.289062 14.054688 25.179688 14.324219 25.199219 14.640625 C 25.234375 14.96875 25.367188 15.019531 25.601562 14.800781 C 25.632812 15.101562 25.710938 15.367188 25.839844 15.601562 C 26.742188 15.386719 27.652344 15.171875 28.558594 14.960938 C 28.917969 14.886719 29.238281 14.886719 29.519531 14.960938 C 28.5 15.605469 27.433594 16.191406 26.320312 16.71875 C 26.90625 16.828125 27.492188 16.933594 28.078125 17.039062 C 27.679688 17.273438 27.253906 17.460938 26.800781 17.601562 C 26.667969 17.761719 26.613281 17.949219 26.640625 18.160156 C 28.191406 18.253906 29.738281 18.414062 31.28125 18.640625 C 29.675781 18.828125 28.078125 19.039062 26.480469 19.28125 C 26.953125 19.625 27.488281 19.839844 28.078125 19.921875 C 27.53125 20.195312 26.941406 20.300781 26.320312 20.238281 C 26.320312 20.398438 26.320312 20.558594 26.320312 20.71875 C 27.164062 20.980469 27.910156 21.410156 28.558594 22 C 28.109375 22.140625 27.628906 22.140625 27.121094 22 C 26.742188 21.917969 26.367188 21.8125 26 21.679688 C 25.945312 21.734375 25.894531 21.785156 25.839844 21.839844 C 26.320312 22.238281 26.800781 22.640625 27.28125 23.039062 C 26.628906 23.070312 26.015625 22.9375 25.441406 22.640625 C 25.308594 22.691406 25.171875 22.746094 25.039062 22.800781 C 25.691406 23.417969 26.226562 24.109375 26.640625 24.878906 C 26.625 25.039062 26.679688 25.171875 26.800781 25.28125 C 26.703125 25.355469 26.597656 25.382812 26.480469 25.359375 C 25.738281 24.78125 24.992188 24.195312 24.238281 23.601562 C 24.1875 23.652344 24.132812 23.707031 24.078125 23.761719 C 25.507812 25.84375 25.296875 26.03125 23.441406 24.320312 C 23.289062 24.242188 23.128906 24.214844 22.960938 24.238281 C 22.941406 24.652344 23.050781 25.027344 23.28125 25.359375 C 23.265625 25.785156 23.371094 26.15625 23.601562 26.480469 C 23.65625 26.796875 23.546875 27.011719 23.28125 27.121094 C 22.871094 26.355469 22.417969 25.609375 21.921875 24.878906 C 21.933594 25.570312 21.933594 26.265625 21.921875 26.960938 C 21.570312 26.386719 21.25 25.800781 20.960938 25.199219 C 20.796875 25.066406 20.613281 25.011719 20.398438 25.039062 C 20.265625 26.316406 20.160156 27.597656 20.078125 28.878906 C 19.980469 28.898438 19.902344 28.949219 19.839844 29.039062 C 19.808594 28.6875 19.730469 28.367188 19.601562 28.078125 C 19.570312 27.078125 19.464844 26.089844 19.28125 25.121094 C 19.128906 25.019531 18.996094 25.046875 18.878906 25.199219 C 18.210938 27.34375 17.890625 27.238281 17.921875 24.878906 C 17.527344 25.402344 17.179688 25.933594 16.878906 26.480469 C 16.988281 25.742188 16.960938 24.996094 16.800781 24.238281 C 16.5625 24.121094 16.535156 23.984375 16.71875 23.839844 C 16.480469 23.757812 16.292969 23.839844 16.160156 24.078125 C 15.722656 23.621094 15.214844 23.515625 14.640625 23.761719 C 14.769531 23.539062 14.769531 23.269531 14.640625 22.960938 C 14.59375 22.777344 14.460938 22.667969 14.238281 22.640625 C 13.90625 22.785156 13.558594 22.894531 13.199219 22.960938 C 13.128906 22.96875 13.078125 22.945312 13.039062 22.878906 C 13.285156 22.660156 13.5 22.421875 13.679688 22.160156 C 13.941406 21.898438 13.886719 21.738281 13.519531 21.679688 C 12.722656 21.917969 11.925781 22.132812 11.121094 22.320312 C 10.953125 22.34375 10.792969 22.316406 10.640625 22.238281 C 10.78125 22.125 10.886719 21.992188 10.960938 21.839844 C 11.527344 21.511719 12.113281 21.21875 12.71875 20.960938 C 13.03125 20.816406 13.191406 20.574219 13.199219 20.238281 C 10.703125 20.394531 10.648438 20.125 13.039062 19.441406 C 13.183594 19.328125 13.238281 19.167969 13.199219 18.960938 C 12.402344 18.894531 11.601562 18.839844 10.800781 18.800781 C 10.917969 18.554688 11.128906 18.417969 11.441406 18.398438 C 11.972656 18.347656 12.507812 18.292969 13.039062 18.238281 C 13.25 17.980469 13.25 17.742188 13.039062 17.519531 C 12.628906 17.535156 12.253906 17.429688 11.921875 17.199219 C 11.902344 17.101562 11.847656 17.019531 11.761719 16.960938 C 12.269531 16.929688 12.75 16.851562 13.199219 16.71875 C 13 16.457031 12.785156 16.1875 12.558594 15.921875 C 12.359375 15.660156 12.09375 15.472656 11.761719 15.359375 C 12.300781 15.335938 12.835938 15.414062 13.359375 15.601562 C 13.507812 15.59375 13.613281 15.539062 13.679688 15.441406 C 13.804688 15.394531 13.914062 15.316406 14 15.199219 C 13.570312 14.769531 13.140625 14.34375 12.71875 13.921875 C 13.320312 13.96875 13.90625 14.101562 14.480469 14.320312 C 14.496094 13.996094 14.390625 13.730469 14.160156 13.519531 C 14.171875 13.359375 14.121094 13.226562 14 13.121094 C 14.105469 13.09375 14.214844 13.066406 14.320312 13.039062 C 14.796875 13.394531 15.328125 13.554688 15.921875 13.519531 C 15.988281 13.15625 15.882812 12.886719 15.601562 12.71875 C 15.574219 12.550781 15.601562 12.390625 15.679688 12.238281 C 15.789062 12.359375 15.921875 12.414062 16.078125 12.398438 C 16.167969 12.8125 16.433594 12.972656 16.878906 12.878906 C 16.855469 12.34375 16.878906 11.8125 16.960938 11.28125 C 17.066406 11.398438 17.199219 11.453125 17.359375 11.441406 C 17.535156 11.65625 17.695312 11.894531 17.839844 12.160156 C 17.988281 12.269531 18.097656 12.242188 18.160156 12.078125 C 18.265625 11.675781 18.375 11.25 18.480469 10.800781 C 18.589844 10.859375 18.695312 10.910156 18.800781 10.960938 C 18.84375 11.480469 19.109375 11.800781 19.601562 11.921875 C 19.617188 10.46875 19.753906 9.027344 20 7.601562 C 20.335938 9.019531 20.46875 10.460938 20.398438 11.921875 C 20.589844 11.953125 20.746094 11.902344 20.878906 11.761719 C 21.042969 11.1875 21.285156 10.652344 21.601562 10.160156 C 21.679688 10.851562 21.707031 11.542969 21.679688 12.238281 Z M 21.679688 12.238281 "/>
<path style=" stroke:none;fill-rule:evenodd;fill:rgb(39.607843%,18.431373%,8.235294%);fill-opacity:1;" d="M 24.238281 21.679688 C 23.675781 22.6875 22.824219 23.351562 21.679688 23.679688 C 20.675781 23.917969 19.664062 23.972656 18.640625 23.839844 C 18.320312 23.78125 18.054688 23.648438 17.839844 23.441406 C 20.324219 24.097656 22.457031 23.511719 24.238281 21.679688 Z M 24.238281 21.679688 "/>
<path style=" stroke:none;fill-rule:evenodd;fill:rgb(39.215686%,17.647059%,7.843137%);fill-opacity:1;" d="M 15.28125 21.199219 C 15.988281 22.121094 16.839844 22.867188 17.839844 23.441406 C 16.632812 23.085938 15.78125 22.339844 15.28125 21.199219 Z M 15.28125 21.199219 "/>
<path style=" stroke:none;fill-rule:evenodd;fill:rgb(39.607843%,17.254902%,8.235294%);fill-opacity:1;" d="M 24.878906 16.558594 C 25.109375 16.824219 25.242188 17.144531 25.28125 17.519531 C 25.359375 18.15625 25.386719 18.796875 25.359375 19.441406 C 25.238281 20.324219 24.863281 21.070312 24.238281 21.679688 C 25.230469 20.078125 25.445312 18.375 24.878906 16.558594 Z M 24.878906 16.558594 "/>
<path style=" stroke:none;fill-rule:evenodd;fill:rgb(40.392157%,19.215686%,8.235294%);fill-opacity:1;" d="M 14.640625 19.441406 C 14.914062 19.992188 15.125 20.578125 15.28125 21.199219 C 14.773438 20.738281 14.5625 20.152344 14.640625 19.441406 Z M 14.640625 19.441406 "/>
<path style=" stroke:none;fill-rule:evenodd;fill:rgb(35.686275%,10.588235%,2.352941%);fill-opacity:1;" d="M 14.960938 16.558594 C 14.726562 17.503906 14.621094 18.464844 14.640625 19.441406 C 14.457031 18.832031 14.429688 18.191406 14.558594 17.519531 C 14.597656 17.144531 14.730469 16.824219 14.960938 16.558594 Z M 14.960938 16.558594 "/>
<path style=" stroke:none;fill-rule:evenodd;fill:rgb(80.784314%,39.607843%,12.156863%);fill-opacity:1;" d="M 22.800781 14 C 24.542969 14.894531 25.449219 16.335938 25.519531 18.320312 C 25.519531 18.722656 25.464844 19.097656 25.359375 19.441406 C 25.386719 18.796875 25.359375 18.15625 25.28125 17.519531 C 25.242188 17.144531 25.109375 16.824219 24.878906 16.558594 C 24.601562 16.375 24.441406 16.109375 24.398438 15.761719 C 24.410156 15.515625 24.304688 15.355469 24.078125 15.28125 C 23.800781 14.839844 23.429688 14.519531 22.960938 14.320312 C 22.90625 14.214844 22.851562 14.105469 22.800781 14 Z M 22.800781 14 "/>
<path style=" stroke:none;fill-rule:evenodd;fill:rgb(32.941176%,14.117647%,8.235294%);fill-opacity:1;" d="M 24.078125 15.28125 C 24.304688 15.355469 24.410156 15.515625 24.398438 15.761719 C 24.175781 15.683594 24.066406 15.523438 24.078125 15.28125 Z M 24.078125 15.28125 "/>
<path style=" stroke:none;fill-rule:evenodd;fill:rgb(39.607843%,19.215686%,11.372549%);fill-opacity:1;" d="M 17.839844 13.839844 C 16.675781 14.527344 15.714844 15.433594 14.960938 16.558594 C 15.507812 15.210938 16.46875 14.304688 17.839844 13.839844 Z M 17.839844 13.839844 "/>
<path style=" stroke:none;fill-rule:evenodd;fill:rgb(39.215686%,20%,11.372549%);fill-opacity:1;" d="M 22.960938 14.320312 C 23.429688 14.519531 23.800781 14.839844 24.078125 15.28125 C 23.613281 15.078125 23.238281 14.757812 22.960938 14.320312 Z M 22.960938 14.320312 "/>
<path style=" stroke:none;fill-rule:evenodd;fill:rgb(36.862745%,15.294118%,7.058824%);fill-opacity:1;" d="M 22 13.839844 C 22.273438 13.859375 22.542969 13.914062 22.800781 14 C 22.851562 14.105469 22.90625 14.214844 22.960938 14.320312 C 22.589844 14.242188 22.269531 14.082031 22 13.839844 Z M 22 13.839844 "/>
<path style=" stroke:none;fill-rule:evenodd;fill:rgb(96.862745%,96.862745%,96.078431%);fill-opacity:1;" d="M 22 13.839844 C 22.269531 14.082031 22.589844 14.242188 22.960938 14.320312 C 23.238281 14.757812 23.613281 15.078125 24.078125 15.28125 C 24.066406 15.523438 24.175781 15.683594 24.398438 15.761719 C 24.441406 16.109375 24.601562 16.375 24.878906 16.558594 C 25.445312 18.375 25.230469 20.078125 24.238281 21.679688 C 22.457031 23.511719 20.324219 24.097656 17.839844 23.441406 C 16.839844 22.867188 15.988281 22.121094 15.28125 21.199219 C 15.125 20.578125 14.914062 19.992188 14.640625 19.441406 C 14.621094 18.464844 14.726562 17.503906 14.960938 16.558594 C 15.714844 15.433594 16.675781 14.527344 17.839844 13.839844 C 18.523438 13.691406 19.21875 13.585938 19.921875 13.519531 C 20.617188 13.601562 21.3125 13.707031 22 13.839844 Z M 22 13.839844 "/>
<path style=" stroke:none;fill-rule:evenodd;fill:rgb(15.686275%,15.686275%,15.686275%);fill-opacity:1;" d="M 19.601562 14.640625 C 19.914062 14.601562 20.207031 14.65625 20.480469 14.800781 C 20.863281 15.339844 21.128906 15.925781 21.28125 16.558594 C 23.886719 15.933594 24.285156 16.625 22.480469 18.640625 C 24.289062 20.695312 23.863281 21.417969 21.199219 20.800781 C 21.015625 21.25 20.828125 21.703125 20.640625 22.160156 C 20.160156 22.800781 19.679688 22.800781 19.199219 22.160156 C 18.972656 21.703125 18.839844 21.222656 18.800781 20.71875 C 17.964844 20.902344 17.136719 20.902344 16.320312 20.71875 C 16.214844 20.453125 16.214844 20.1875 16.320312 19.921875 C 16.636719 19.46875 16.984375 19.042969 17.359375 18.640625 C 15.550781 16.558594 15.976562 15.863281 18.640625 16.558594 C 18.808594 15.835938 19.128906 15.195312 19.601562 14.640625 Z M 19.601562 14.640625 "/>
<path style=" stroke:none;fill-rule:evenodd;fill:rgb(95.686275%,95.686275%,95.686275%);fill-opacity:1;" d="M 19.601562 20.238281 C 20.09375 20.21875 20.519531 20.378906 20.878906 20.71875 C 20.261719 22.847656 19.621094 22.847656 18.960938 20.71875 C 19.140625 20.503906 19.351562 20.34375 19.601562 20.238281 Z M 19.601562 20.238281 "/>
<path style=" stroke:none;fill-rule:evenodd;fill:rgb(63.921569%,63.921569%,63.921569%);fill-opacity:1;" d="M 18.800781 19.601562 C 19.609375 19.890625 19.609375 20.101562 18.800781 20.238281 C 18.800781 20.027344 18.800781 19.8125 18.800781 19.601562 Z M 18.800781 19.601562 "/>
<path style=" stroke:none;fill-rule:evenodd;fill:rgb(79.607843%,79.607843%,79.607843%);fill-opacity:1;" d="M 20.71875 19.601562 C 20.988281 19.710938 21.09375 19.921875 21.039062 20.238281 C 20.34375 20.273438 20.238281 20.058594 20.71875 19.601562 Z M 20.71875 19.601562 "/>
<path style=" stroke:none;fill-rule:evenodd;fill:rgb(95.686275%,95.294118%,95.294118%);fill-opacity:1;" d="M 22 18.800781 C 22.828125 19.132812 23.203125 19.71875 23.121094 20.558594 C 21.0625 20.90625 20.691406 20.320312 22 18.800781 Z M 22 18.800781 "/>
<path style=" stroke:none;fill-rule:evenodd;fill:rgb(93.72549%,93.333333%,93.333333%);fill-opacity:1;" d="M 17.519531 18.800781 C 17.859375 19.03125 18.234375 19.191406 18.640625 19.28125 C 18.679688 20.472656 18.09375 20.929688 16.878906 20.640625 C 16.59375 20.46875 16.515625 20.230469 16.640625 19.921875 C 16.90625 19.519531 17.199219 19.148438 17.519531 18.800781 Z M 17.519531 18.800781 "/>
<path style=" stroke:none;fill-rule:evenodd;fill:rgb(87.45098%,87.45098%,87.45098%);fill-opacity:1;" d="M 21.359375 18.320312 C 21.898438 18.433594 21.949219 18.644531 21.519531 18.960938 C 21.371094 18.769531 21.316406 18.554688 21.359375 18.320312 Z M 21.359375 18.320312 "/>
<path style=" stroke:none;fill-rule:evenodd;fill:rgb(89.019608%,89.019608%,89.019608%);fill-opacity:1;" d="M 18.160156 18.320312 C 18.453125 18.433594 18.535156 18.644531 18.398438 18.960938 C 18.019531 18.828125 17.941406 18.617188 18.160156 18.320312 Z M 18.160156 18.320312 "/>
<path style=" stroke:none;fill-rule:evenodd;fill:rgb(93.72549%,93.72549%,93.72549%);fill-opacity:1;" d="M 19.761719 17.359375 C 20.1875 17.519531 20.613281 17.679688 21.039062 17.839844 C 21.402344 19.15625 20.921875 19.769531 19.601562 19.679688 C 18.851562 19.28125 18.636719 18.667969 18.960938 17.839844 C 19.261719 17.714844 19.53125 17.554688 19.761719 17.359375 Z M 19.761719 17.359375 "/>
<path style=" stroke:none;fill-rule:evenodd;fill:rgb(9.411765%,9.411765%,9.411765%);fill-opacity:1;" d="M 19.761719 18.320312 C 19.972656 18.320312 20.1875 18.320312 20.398438 18.320312 C 20.398438 18.535156 20.398438 18.746094 20.398438 18.960938 C 20.1875 18.960938 19.972656 18.960938 19.761719 18.960938 C 19.761719 18.746094 19.761719 18.535156 19.761719 18.320312 Z M 19.761719 18.320312 "/>
<path style=" stroke:none;fill-rule:evenodd;fill:rgb(83.137255%,83.137255%,83.137255%);fill-opacity:1;" d="M 20.398438 17.039062 C 20.613281 17.039062 20.828125 17.039062 21.039062 17.039062 C 21.074219 17.226562 21.023438 17.386719 20.878906 17.519531 C 20.605469 17.460938 20.445312 17.300781 20.398438 17.039062 Z M 20.398438 17.039062 "/>
<path style=" stroke:none;fill-rule:evenodd;fill:rgb(92.156863%,92.156863%,92.156863%);fill-opacity:1;" d="M 18.960938 17.039062 C 19.566406 17.089844 19.59375 17.25 19.039062 17.519531 C 18.960938 17.367188 18.9375 17.207031 18.960938 17.039062 Z M 18.960938 17.039062 "/>
<path style=" stroke:none;fill-rule:evenodd;fill:rgb(96.862745%,96.862745%,96.862745%);fill-opacity:1;" d="M 21.839844 16.558594 C 22.269531 16.535156 22.695312 16.558594 23.121094 16.640625 C 23.308594 16.9375 23.28125 17.230469 23.039062 17.519531 C 21.953125 18.59375 21.339844 18.328125 21.199219 16.71875 C 21.457031 16.761719 21.667969 16.710938 21.839844 16.558594 Z M 21.839844 16.558594 "/>
<path style=" stroke:none;fill-rule:evenodd;fill:rgb(94.117647%,94.509804%,94.117647%);fill-opacity:1;" d="M 16.71875 16.558594 C 17.363281 16.582031 18.003906 16.636719 18.640625 16.71875 C 18.867188 17.59375 18.546875 18.128906 17.679688 18.320312 C 17.308594 18.03125 16.960938 17.710938 16.640625 17.359375 C 16.539062 17.078125 16.5625 16.8125 16.71875 16.558594 Z M 16.71875 16.558594 "/>
<path style=" stroke:none;fill-rule:evenodd;fill:rgb(93.72549%,93.333333%,93.333333%);fill-opacity:1;" d="M 19.601562 14.960938 C 19.957031 14.910156 20.25 15.015625 20.480469 15.28125 C 20.6875 15.738281 20.820312 16.21875 20.878906 16.71875 C 20.542969 16.714844 20.25 16.824219 20 17.039062 C 19.671875 16.863281 19.324219 16.753906 18.960938 16.71875 C 19.046875 16.078125 19.261719 15.492188 19.601562 14.960938 Z M 19.601562 14.960938 "/>
<path style=" stroke:none;fill-rule:evenodd;fill:rgb(39.215686%,17.647059%,7.843137%);fill-opacity:1;" d="M 22 13.839844 C 21.3125 13.707031 20.617188 13.601562 19.921875 13.519531 C 19.21875 13.585938 18.523438 13.691406 17.839844 13.839844 C 17.976562 13.605469 18.1875 13.472656 18.480469 13.441406 C 19.386719 13.332031 20.292969 13.332031 21.199219 13.441406 C 21.519531 13.5 21.785156 13.632812 22 13.839844 Z M 22 13.839844 "/>
<path style=" stroke:none;fill-rule:evenodd;fill:rgb(90.588235%,45.098039%,15.686275%);fill-opacity:1;" d="M 24.078125 13.199219 C 24.105469 12.980469 24.078125 12.765625 24 12.558594 C 23.703125 12.964844 23.304688 13.125 22.800781 13.039062 C 22.734375 12.589844 22.894531 12.269531 23.28125 12.078125 C 23.128906 12.359375 23.128906 12.625 23.28125 12.878906 C 23.734375 12.449219 24.164062 11.996094 24.558594 11.519531 C 24.691406 11.410156 24.800781 11.4375 24.878906 11.601562 C 24.550781 12.117188 24.28125 12.648438 24.078125 13.199219 Z M 24.078125 13.199219 "/>
<path style=" stroke:none;fill-rule:evenodd;fill:rgb(14.509804%,15.294118%,16.078431%);fill-opacity:1;" d="M 32.878906 24.238281 C 33.417969 24.285156 33.894531 24.472656 34.320312 24.800781 C 33.871094 24.875 33.445312 24.792969 33.039062 24.558594 C 32.921875 24.785156 32.789062 25 32.640625 25.199219 C 32.519531 24.824219 32.601562 24.503906 32.878906 24.238281 Z M 32.878906 24.238281 "/>
<path style=" stroke:none;fill-rule:evenodd;fill:rgb(90.588235%,97.647059%,97.254902%);fill-opacity:1;" d="M 5.679688 22.640625 C 5.414062 22.640625 5.148438 22.640625 4.878906 22.640625 C 4.847656 23.027344 4.898438 23.402344 5.039062 23.761719 C 5.171875 23.902344 5.332031 23.953125 5.519531 23.921875 C 5.734375 23.921875 5.945312 23.921875 6.160156 23.921875 C 6.183594 24.140625 6.160156 24.351562 6.078125 24.558594 C 6.027344 24.453125 5.972656 24.347656 5.921875 24.238281 C 5.707031 24.460938 5.679688 24.671875 5.839844 24.878906 C 5.738281 24.945312 5.6875 25.054688 5.679688 25.199219 C 5.835938 25.515625 5.996094 25.835938 6.160156 26.160156 C 6.550781 25.875 6.976562 25.664062 7.441406 25.519531 C 7.566406 25.445312 7.621094 25.339844 7.601562 25.199219 C 7.753906 25.40625 7.914062 25.40625 8.078125 25.199219 C 8.132812 25.332031 8.1875 25.464844 8.238281 25.601562 C 7.925781 26.476562 7.445312 27.25 6.800781 27.921875 C 6.640625 28.132812 6.480469 28.132812 6.320312 27.921875 C 6.226562 27.679688 6.09375 27.464844 5.921875 27.28125 C 5.6875 27.367188 5.417969 27.367188 5.121094 27.28125 C 4.804688 27.285156 4.511719 27.367188 4.238281 27.519531 C 4.359375 27.628906 4.414062 27.761719 4.398438 27.921875 C 3.894531 28.320312 3.308594 28.535156 2.640625 28.558594 C 2.332031 27.734375 2.011719 26.90625 1.679688 26.078125 C 2.398438 25.640625 3.144531 25.242188 3.921875 24.878906 C 3.972656 24.773438 4.027344 24.667969 4.078125 24.558594 C 3.945312 23.960938 3.785156 23.375 3.601562 22.800781 C 3.601562 22.640625 3.601562 22.480469 3.601562 22.320312 C 3.191406 22.273438 2.816406 22.324219 2.480469 22.480469 C 1.839844 22.480469 1.199219 22.480469 0.558594 22.480469 C 0.441406 21.523438 0.386719 20.566406 0.398438 19.601562 C 1.300781 19.464844 2.207031 19.410156 3.121094 19.441406 C 3.121094 18.746094 3.121094 18.054688 3.121094 17.359375 C 3.242188 17.253906 3.347656 17.121094 3.441406 16.960938 C 3.832031 16.878906 3.855469 16.957031 3.519531 17.199219 C 3.386719 17.898438 3.414062 18.59375 3.601562 19.28125 C 3.96875 19.308594 4.34375 19.363281 4.71875 19.441406 C 4.472656 19.394531 4.207031 19.472656 3.921875 19.679688 C 4.121094 19.96875 4.121094 20.261719 3.921875 20.558594 C 4.144531 20.949219 4.4375 21.054688 4.800781 20.878906 C 4.953125 21.214844 5.164062 21.269531 5.441406 21.039062 C 6.199219 21.316406 6.171875 21.476562 5.359375 21.519531 C 5.347656 22.015625 5.425781 22.070312 5.601562 21.679688 C 5.679688 21.996094 5.707031 22.316406 5.679688 22.640625 Z M 5.679688 22.640625 "/>
<path style=" stroke:none;fill-rule:evenodd;fill:rgb(86.666667%,50.980392%,23.921569%);fill-opacity:1;" d="M 26.640625 24.878906 C 27.191406 25.339844 27.671875 25.875 28.078125 26.480469 C 28 26.644531 27.894531 26.671875 27.761719 26.558594 C 27.351562 26.121094 26.921875 25.722656 26.480469 25.359375 C 26.597656 25.382812 26.703125 25.355469 26.800781 25.28125 C 26.679688 25.171875 26.625 25.039062 26.640625 24.878906 Z M 26.640625 24.878906 "/>
<path style=" stroke:none;fill-rule:evenodd;fill:rgb(13.72549%,14.901961%,15.686275%);fill-opacity:1;" d="M 7.601562 25.199219 C 7.621094 25.339844 7.566406 25.445312 7.441406 25.519531 C 6.976562 25.664062 6.550781 25.875 6.160156 26.160156 C 5.996094 25.835938 5.835938 25.515625 5.679688 25.199219 C 5.6875 25.054688 5.738281 24.945312 5.839844 24.878906 C 6.1875 24.769531 6.507812 24.613281 6.800781 24.398438 C 6.949219 24.417969 7.085938 24.46875 7.199219 24.558594 C 7.296875 24.8125 7.429688 25.023438 7.601562 25.199219 Z M 7.601562 25.199219 "/>
<path style=" stroke:none;fill-rule:evenodd;fill:rgb(68.235294%,69.019608%,70.196078%);fill-opacity:1;" d="M 6 25.039062 C 6.445312 25.09375 6.550781 25.308594 6.320312 25.679688 C 6.0625 25.546875 5.957031 25.335938 6 25.039062 Z M 6 25.039062 "/>
<path style=" stroke:none;fill-rule:evenodd;fill:rgb(84.705882%,84.705882%,85.882353%);fill-opacity:1;" d="M 6.640625 24.71875 C 7.082031 24.773438 7.191406 24.988281 6.960938 25.359375 C 6.703125 25.230469 6.59375 25.015625 6.640625 24.71875 Z M 6.640625 24.71875 "/>
<path style=" stroke:none;fill-rule:evenodd;fill:rgb(96.470588%,67.45098%,39.215686%);fill-opacity:1;" d="M 23.28125 25.359375 C 23.507812 25.683594 23.613281 26.054688 23.601562 26.480469 C 23.371094 26.15625 23.265625 25.785156 23.28125 25.359375 Z M 23.28125 25.359375 "/>
<path style=" stroke:none;fill-rule:evenodd;fill:rgb(9.411765%,10.980392%,10.980392%);fill-opacity:1;" d="M 32.238281 25.519531 C 33.503906 25.574219 33.773438 26.082031 33.039062 27.039062 C 32.359375 27.179688 31.933594 26.914062 31.761719 26.238281 C 31.832031 25.929688 31.992188 25.691406 32.238281 25.519531 Z M 32.238281 25.519531 "/>
<path style=" stroke:none;fill-rule:evenodd;fill:rgb(85.882353%,88.235294%,88.235294%);fill-opacity:1;" d="M 32.238281 25.839844 C 32.882812 25.761719 33.175781 26.027344 33.121094 26.640625 C 32.289062 26.933594 31.996094 26.667969 32.238281 25.839844 Z M 32.238281 25.839844 "/>
<path style=" stroke:none;fill-rule:evenodd;fill:rgb(12.941176%,14.117647%,13.72549%);fill-opacity:1;" d="M 8.398438 26.800781 C 8.597656 27.042969 8.597656 27.308594 8.398438 27.601562 C 8.71875 27.652344 9.039062 27.707031 9.359375 27.761719 C 9.011719 27.960938 8.691406 28.199219 8.398438 28.480469 C 7.648438 28.5625 7.355469 28.214844 7.519531 27.441406 C 7.921875 27.359375 8.214844 27.148438 8.398438 26.800781 Z M 8.398438 26.800781 "/>
<path style=" stroke:none;fill-rule:evenodd;fill:rgb(82.745098%,83.529412%,83.137255%);fill-opacity:1;" d="M 7.761719 27.601562 C 8.203125 27.652344 8.3125 27.867188 8.078125 28.238281 C 7.820312 28.109375 7.714844 27.894531 7.761719 27.601562 Z M 7.761719 27.601562 "/>
<path style=" stroke:none;fill-rule:evenodd;fill:rgb(87.45098%,50.196078%,21.960784%);fill-opacity:1;" d="M 23.601562 26.480469 C 23.960938 27.230469 24.148438 28.03125 24.160156 28.878906 C 23.792969 28.335938 23.496094 27.75 23.28125 27.121094 C 23.546875 27.011719 23.65625 26.796875 23.601562 26.480469 Z M 23.601562 26.480469 "/>
<path style=" stroke:none;fill-rule:evenodd;fill:rgb(10.588235%,12.156863%,12.156863%);fill-opacity:1;" d="M 31.121094 26.960938 C 32.296875 26.984375 32.617188 27.492188 32.078125 28.480469 C 31.867188 28.585938 31.652344 28.585938 31.441406 28.480469 C 32.242188 28.101562 32.269531 27.703125 31.519531 27.28125 C 31.261719 27.351562 31.074219 27.511719 30.960938 27.761719 C 31.082031 27.953125 31.21875 27.953125 31.359375 27.761719 C 31.363281 28.222656 31.148438 28.332031 30.71875 28.078125 C 30.613281 27.867188 30.613281 27.652344 30.71875 27.441406 C 30.886719 27.300781 31.019531 27.140625 31.121094 26.960938 Z M 31.121094 26.960938 "/>
<path style=" stroke:none;fill-rule:evenodd;fill:rgb(13.333333%,14.509804%,14.901961%);fill-opacity:1;" d="M 9.199219 28.238281 C 9.753906 28.195312 10.179688 28.410156 10.480469 28.878906 C 10.128906 29.257812 9.726562 29.578125 9.28125 29.839844 C 8.914062 29.738281 8.726562 29.5 8.71875 29.121094 C 8.777344 28.769531 8.9375 28.476562 9.199219 28.238281 Z M 9.199219 28.238281 "/>
<path style=" stroke:none;fill-rule:evenodd;fill:rgb(91.372549%,92.54902%,92.941176%);fill-opacity:1;" d="M 9.359375 28.558594 C 9.65625 28.515625 9.867188 28.621094 10 28.878906 C 9.839844 29.148438 9.625 29.359375 9.359375 29.519531 C 8.960938 29.214844 8.960938 28.898438 9.359375 28.558594 Z M 9.359375 28.558594 "/>
<path style=" stroke:none;fill-rule:evenodd;fill:rgb(9.803922%,12.156863%,11.764706%);fill-opacity:1;" d="M 29.679688 28.398438 C 30.171875 28.726562 30.703125 28.992188 31.28125 29.199219 C 31.039062 29.289062 30.773438 29.289062 30.480469 29.199219 C 30.566406 29.492188 30.566406 29.757812 30.480469 30 C 30.292969 29.414062 30.027344 28.882812 29.679688 28.398438 Z M 29.679688 28.398438 "/>
<path style=" stroke:none;fill-rule:evenodd;fill:rgb(92.941176%,70.196078%,46.666667%);fill-opacity:1;" d="M 19.601562 28.078125 C 19.730469 28.367188 19.808594 28.6875 19.839844 29.039062 C 19.902344 28.949219 19.980469 28.898438 20.078125 28.878906 C 20.136719 29.292969 20.054688 29.664062 19.839844 30 C 19.65625 29.375 19.574219 28.734375 19.601562 28.078125 Z M 19.601562 28.078125 "/>
<path style=" stroke:none;fill-rule:evenodd;fill:rgb(10.196078%,10.980392%,11.372549%);fill-opacity:1;" d="M 11.441406 30.480469 C 12.34375 30.347656 12.613281 30.695312 12.238281 31.519531 C 11.378906 31.640625 11.113281 31.296875 11.441406 30.480469 Z M 11.441406 30.480469 "/>
<path style=" stroke:none;fill-rule:evenodd;fill:rgb(4.705882%,5.490196%,13.72549%);fill-opacity:1;" d="M 27.601562 30.480469 C 28.484375 30.476562 28.695312 30.824219 28.238281 31.519531 C 27.453125 31.589844 27.238281 31.242188 27.601562 30.480469 Z M 27.601562 30.480469 "/>
<path style=" stroke:none;fill-rule:evenodd;fill:rgb(89.019608%,97.647059%,97.254902%);fill-opacity:1;" d="M 30.960938 31.441406 C 31.925781 32.300781 32.726562 33.316406 33.359375 34.480469 C 31.894531 35.828125 30.242188 36.894531 28.398438 37.679688 C 28.066406 37.652344 27.746094 37.703125 27.441406 37.839844 C 27.386719 37.785156 27.332031 37.734375 27.28125 37.679688 C 27.421875 37.558594 27.582031 37.480469 27.761719 37.441406 C 27.253906 37.4375 26.800781 37.304688 26.398438 37.039062 C 26.339844 37.128906 26.257812 37.183594 26.160156 37.199219 C 26.160156 37.148438 26.160156 37.09375 26.160156 37.039062 C 26.15625 36.878906 26.234375 36.773438 26.398438 36.71875 C 27.019531 36.757812 27.632812 36.757812 28.238281 36.71875 C 28.660156 36.59375 28.980469 36.351562 29.199219 36 C 29.121094 35.746094 28.960938 35.558594 28.71875 35.441406 C 28.875 35.230469 28.847656 35.015625 28.640625 34.800781 C 28.578125 34.890625 28.5 34.941406 28.398438 34.960938 C 28.425781 34.800781 28.375 34.695312 28.238281 34.640625 C 28.15625 34.445312 28.046875 34.257812 27.921875 34.078125 C 28.054688 33.917969 28.105469 33.730469 28.078125 33.519531 C 29.097656 32.90625 30.054688 32.210938 30.960938 31.441406 Z M 30.960938 31.441406 "/>
<path style=" stroke:none;fill-rule:evenodd;fill:rgb(89.019608%,97.254902%,97.254902%);fill-opacity:1;" d="M 8.398438 31.28125 C 9.144531 31.753906 9.890625 32.234375 10.640625 32.71875 C 10.957031 33.492188 11.542969 33.921875 12.398438 34 C 12.546875 34.191406 12.601562 34.402344 12.558594 34.640625 C 12.191406 34.539062 11.84375 34.378906 11.519531 34.160156 C 11.445312 34.253906 11.417969 34.363281 11.441406 34.480469 C 11.300781 34.460938 11.191406 34.511719 11.121094 34.640625 C 11.296875 34.761719 11.40625 34.921875 11.441406 35.121094 C 11.28125 35.121094 11.121094 35.121094 10.960938 35.121094 C 10.910156 35.582031 10.964844 36.007812 11.121094 36.398438 C 11.007812 36.542969 10.847656 36.597656 10.640625 36.558594 C 10.652344 36.792969 10.597656 37.007812 10.480469 37.199219 C 8.921875 36.59375 7.457031 35.792969 6.078125 34.800781 C 5.972656 34.640625 5.972656 34.480469 6.078125 34.320312 C 6.855469 33.300781 7.628906 32.289062 8.398438 31.28125 Z M 8.398438 31.28125 "/>
<path style=" stroke:none;fill-rule:evenodd;fill:rgb(12.156863%,13.72549%,14.117647%);fill-opacity:1;" d="M 8.558594 30.960938 C 9.355469 31.519531 10.15625 32.078125 10.960938 32.640625 C 17.933594 36.320312 24.601562 35.867188 30.960938 31.28125 C 30.960938 31.332031 30.960938 31.386719 30.960938 31.441406 C 30.054688 32.210938 29.097656 32.90625 28.078125 33.519531 C 22.113281 36.316406 16.300781 36.050781 10.640625 32.71875 C 9.890625 32.234375 9.144531 31.753906 8.398438 31.28125 C 8.453125 31.171875 8.507812 31.066406 8.558594 30.960938 Z M 8.558594 30.960938 "/>
<path style=" stroke:none;fill-rule:evenodd;fill:rgb(14.509804%,16.078431%,16.078431%);fill-opacity:1;" d="M 18.960938 32.398438 C 19.386719 32.496094 19.679688 32.761719 19.839844 33.199219 C 19.875 32.96875 19.953125 32.757812 20.078125 32.558594 C 20.292969 33.039062 20.292969 33.519531 20.078125 34 C 19.765625 33.800781 19.527344 33.535156 19.359375 33.199219 C 19.328125 33.480469 19.246094 33.746094 19.121094 34 C 18.960938 33.476562 18.910156 32.945312 18.960938 32.398438 Z M 18.960938 32.398438 "/>
<path style=" stroke:none;fill-rule:evenodd;fill:rgb(48.627451%,51.372549%,50.588235%);fill-opacity:1;" d="M 15.601562 31.761719 C 15.808594 32.324219 15.808594 32.910156 15.601562 33.519531 C 15.503906 33.5 15.449219 33.445312 15.441406 33.359375 C 15.597656 32.859375 15.648438 32.328125 15.601562 31.761719 Z M 15.601562 31.761719 "/>
<path style=" stroke:none;fill-rule:evenodd;fill:rgb(12.941176%,14.117647%,14.117647%);fill-opacity:1;" d="M 20.558594 32.398438 C 21.765625 32.277344 22.140625 32.785156 21.679688 33.921875 C 21.308594 34 20.9375 34.027344 20.558594 34 C 20.558594 33.464844 20.558594 32.933594 20.558594 32.398438 Z M 20.558594 32.398438 "/>
<path style=" stroke:none;fill-rule:evenodd;fill:rgb(92.156863%,93.72549%,93.72549%);fill-opacity:1;" d="M 20.878906 32.71875 C 21.09375 32.71875 21.308594 32.71875 21.519531 32.71875 C 21.519531 33.039062 21.519531 33.359375 21.519531 33.679688 C 21.308594 33.679688 21.09375 33.679688 20.878906 33.679688 C 20.878906 33.359375 20.878906 33.039062 20.878906 32.71875 Z M 20.878906 32.71875 "/>
<path style=" stroke:none;fill-rule:evenodd;fill:rgb(15.294118%,17.647059%,17.647059%);fill-opacity:1;" d="M 16.238281 32.078125 C 16.398438 32.074219 16.507812 32.15625 16.558594 32.320312 C 16.15625 33.265625 16.425781 33.613281 17.359375 33.359375 C 17.558594 33.121094 17.71875 32.851562 17.839844 32.558594 C 17.972656 32.417969 18.132812 32.363281 18.320312 32.398438 C 18.402344 32.804688 18.507812 33.203125 18.640625 33.601562 C 18.585938 33.734375 18.535156 33.867188 18.480469 34 C 18.347656 33.855469 18.1875 33.746094 18 33.679688 C 17.308594 33.863281 16.613281 33.863281 15.921875 33.679688 C 16.027344 33.148438 16.132812 32.613281 16.238281 32.078125 Z M 16.238281 32.078125 "/>
<path style=" stroke:none;fill-rule:evenodd;fill:rgb(69.803922%,71.764706%,72.156863%);fill-opacity:1;" d="M 18 32.878906 C 18.476562 33.300781 18.421875 33.40625 17.839844 33.199219 C 17.898438 33.089844 17.953125 32.984375 18 32.878906 Z M 18 32.878906 "/>
<path style=" stroke:none;fill-rule:evenodd;fill:rgb(9.803922%,10.980392%,10.980392%);fill-opacity:1;" d="M 15.601562 31.761719 C 15.648438 32.328125 15.597656 32.859375 15.441406 33.359375 C 15.425781 33.160156 15.320312 33.027344 15.121094 32.960938 C 14.828125 32.96875 14.5625 32.941406 14.320312 32.878906 C 14.605469 32.546875 14.871094 32.199219 15.121094 31.839844 C 15.273438 31.761719 15.433594 31.734375 15.601562 31.761719 Z M 15.601562 31.761719 "/>
<path style=" stroke:none;fill-rule:evenodd;fill:rgb(10.588235%,11.372549%,11.764706%);fill-opacity:1;" d="M 23.921875 31.921875 C 24.089844 31.894531 24.25 31.921875 24.398438 32 C 24.71875 32.375 25.039062 32.746094 25.359375 33.121094 C 24.992188 33.09375 24.617188 33.09375 24.238281 33.121094 C 24.152344 33.269531 24.046875 33.402344 23.921875 33.519531 C 23.886719 33.015625 23.886719 32.480469 23.921875 31.921875 Z M 23.921875 31.921875 "/>
<path style=" stroke:none;fill-rule:evenodd;fill:rgb(48.235294%,49.411765%,49.019608%);fill-opacity:1;" d="M 24.078125 32.398438 C 24.691406 32.601562 24.691406 32.761719 24.078125 32.878906 C 24.078125 32.71875 24.078125 32.558594 24.078125 32.398438 Z M 24.078125 32.398438 "/>
<path style=" stroke:none;fill-rule:evenodd;fill:rgb(63.529412%,64.313725%,64.705882%);fill-opacity:1;" d="M 15.121094 32.238281 C 15.367188 32.292969 15.472656 32.453125 15.441406 32.71875 C 15 32.734375 14.894531 32.574219 15.121094 32.238281 Z M 15.121094 32.238281 "/>
<path style=" stroke:none;fill-rule:evenodd;fill:rgb(15.686275%,17.254902%,17.254902%);fill-opacity:1;" d="M 22.960938 32.078125 C 23.121094 32.066406 23.253906 32.121094 23.359375 32.238281 C 23.402344 32.675781 23.484375 33.101562 23.601562 33.519531 C 23.546875 33.574219 23.492188 33.625 23.441406 33.679688 C 23.292969 33.488281 23.238281 33.277344 23.28125 33.039062 C 22.714844 33 22.417969 33.265625 22.398438 33.839844 C 22.160156 33.355469 22.078125 32.875 22.160156 32.398438 C 22.300781 32.53125 22.355469 32.691406 22.320312 32.878906 C 22.535156 32.878906 22.746094 32.878906 22.960938 32.878906 C 22.960938 32.613281 22.960938 32.347656 22.960938 32.078125 Z M 22.960938 32.078125 "/>
<path style=" stroke:none;fill-rule:evenodd;fill:rgb(11.764706%,12.54902%,12.941176%);fill-opacity:1;" d="M 25.519531 31.28125 C 26.222656 31.183594 26.4375 31.449219 26.160156 32.078125 C 26.386719 32.199219 26.597656 32.332031 26.800781 32.480469 C 26.425781 32.535156 26.050781 32.507812 25.679688 32.398438 C 25.707031 32.621094 25.679688 32.832031 25.601562 33.039062 C 25.320312 32.640625 25.078125 32.210938 24.878906 31.761719 C 25.105469 31.597656 25.316406 31.4375 25.519531 31.28125 Z M 25.519531 31.28125 "/>
<path style=" stroke:none;fill-rule:evenodd;fill:rgb(84.313725%,83.921569%,84.705882%);fill-opacity:1;" d="M 25.519531 31.601562 C 25.816406 31.5625 25.949219 31.671875 25.921875 31.921875 C 25.472656 32.136719 25.335938 32.03125 25.519531 31.601562 Z M 25.519531 31.601562 "/>
<path style=" stroke:none;fill-rule:evenodd;fill:rgb(8.627451%,10.196078%,10.588235%);fill-opacity:1;" d="M 14.320312 31.441406 C 14.460938 31.417969 14.566406 31.472656 14.640625 31.601562 C 14.441406 31.957031 14.226562 32.304688 14 32.640625 C 13.785156 32.746094 13.574219 32.746094 13.359375 32.640625 C 13.207031 32.523438 13.179688 32.390625 13.28125 32.238281 C 13.390625 32.378906 13.523438 32.484375 13.679688 32.558594 C 13.9375 32.207031 14.148438 31.835938 14.320312 31.441406 Z M 14.320312 31.441406 "/>
<path style=" stroke:none;fill-rule:evenodd;fill:rgb(92.156863%,93.72549%,93.72549%);fill-opacity:1;" d="M 10.640625 32.71875 C 16.300781 36.050781 22.113281 36.316406 28.078125 33.519531 C 28.105469 33.730469 28.054688 33.917969 27.921875 34.078125 C 28.046875 34.257812 28.15625 34.445312 28.238281 34.640625 C 27.71875 34.792969 27.238281 35.035156 26.800781 35.359375 C 27.164062 35.40625 27.511719 35.328125 27.839844 35.121094 C 28.140625 35.300781 28.273438 35.566406 28.238281 35.921875 C 28.078125 35.921875 27.921875 35.921875 27.761719 35.921875 C 27.742188 35.304688 27.636719 35.304688 27.441406 35.921875 C 27.472656 36.015625 27.527344 36.09375 27.601562 36.160156 C 28.058594 36.15625 28.484375 36.132812 28.878906 36.078125 C 28.585938 35.761719 28.425781 35.386719 28.398438 34.960938 C 28.5 34.941406 28.578125 34.890625 28.640625 34.800781 C 28.847656 35.015625 28.875 35.230469 28.71875 35.441406 C 28.960938 35.558594 29.121094 35.746094 29.199219 36 C 28.980469 36.351562 28.660156 36.59375 28.238281 36.71875 C 27.632812 36.757812 27.019531 36.757812 26.398438 36.71875 C 26.234375 36.773438 26.15625 36.878906 26.160156 37.039062 C 25.675781 36.433594 25.78125 35.953125 26.480469 35.601562 C 26.441406 35.503906 26.363281 35.453125 26.238281 35.441406 C 25.660156 35.707031 25.046875 35.894531 24.398438 36 C 24.207031 36.164062 24.261719 36.242188 24.558594 36.238281 C 24.890625 36.074219 25.210938 36.074219 25.519531 36.238281 C 24.519531 36.570312 24.46875 37.050781 25.359375 37.679688 C 25.414062 37.625 25.464844 37.574219 25.519531 37.519531 C 25.160156 37.371094 25 37.105469 25.039062 36.71875 C 25.253906 36.71875 25.464844 36.71875 25.679688 36.71875 C 25.800781 37.054688 25.800781 37.375 25.679688 37.679688 C 25.875 37.773438 26.085938 37.800781 26.320312 37.761719 C 25.898438 37.972656 25.472656 38.054688 25.039062 38 C 25.605469 38.480469 26.085938 38.429688 26.480469 37.839844 C 26.441406 37.589844 26.332031 37.375 26.160156 37.199219 C 26.257812 37.183594 26.339844 37.128906 26.398438 37.039062 C 26.800781 37.304688 27.253906 37.4375 27.761719 37.441406 C 27.582031 37.480469 27.421875 37.558594 27.28125 37.679688 C 27.332031 37.734375 27.386719 37.785156 27.441406 37.839844 C 27.746094 37.703125 28.066406 37.652344 28.398438 37.679688 C 23.046875 40.089844 17.605469 40.226562 12.078125 38.078125 C 11.488281 37.859375 10.953125 37.566406 10.480469 37.199219 C 10.597656 37.007812 10.652344 36.792969 10.640625 36.558594 C 10.847656 36.597656 11.007812 36.542969 11.121094 36.398438 C 11.273438 36.171875 11.324219 35.90625 11.28125 35.601562 C 11.535156 35.621094 11.746094 35.726562 11.921875 35.921875 C 11.773438 36.121094 11.746094 36.335938 11.839844 36.558594 C 12.058594 36.117188 12.351562 35.742188 12.71875 35.441406 C 13.148438 35.445312 13.363281 35.660156 13.359375 36.078125 C 13.199219 36.078125 13.039062 36.078125 12.878906 36.078125 C 12.882812 36.46875 12.964844 36.839844 13.121094 37.199219 C 13.160156 36.742188 13.34375 36.367188 13.679688 36.078125 C 13.894531 35.867188 14.105469 35.867188 14.320312 36.078125 C 13.738281 36.488281 13.6875 36.96875 14.160156 37.519531 C 14.1875 37.261719 14.242188 36.996094 14.320312 36.71875 C 14.847656 36.886719 14.898438 36.78125 14.480469 36.398438 C 14.585938 36.238281 14.691406 36.078125 14.800781 35.921875 C 13.644531 35.476562 12.527344 34.996094 11.441406 34.480469 C 11.417969 34.363281 11.445312 34.253906 11.519531 34.160156 C 11.84375 34.378906 12.191406 34.539062 12.558594 34.640625 C 12.601562 34.402344 12.546875 34.191406 12.398438 34 C 11.542969 33.921875 10.957031 33.492188 10.640625 32.71875 Z M 10.640625 32.71875 "/>
<path style=" stroke:none;fill-rule:evenodd;fill:rgb(38.431373%,41.568627%,41.960784%);fill-opacity:1;" d="M 27.28125 34.160156 C 27.441406 34.160156 27.601562 34.160156 27.761719 34.160156 C 27.640625 34.769531 27.480469 34.769531 27.28125 34.160156 Z M 27.28125 34.160156 "/>
<path style=" stroke:none;fill-rule:evenodd;fill:rgb(45.098039%,48.235294%,48.627451%);fill-opacity:1;" d="M 11.441406 35.121094 C 11.34375 35.222656 11.238281 35.332031 11.121094 35.441406 C 11.140625 35.539062 11.191406 35.589844 11.28125 35.601562 C 11.324219 35.90625 11.273438 36.171875 11.121094 36.398438 C 10.964844 36.007812 10.910156 35.582031 10.960938 35.121094 C 11.121094 35.121094 11.28125 35.121094 11.441406 35.121094 Z M 11.441406 35.121094 "/>
<path style=" stroke:none;fill-rule:evenodd;fill:rgb(13.72549%,14.509804%,14.509804%);fill-opacity:1;" d="M 11.441406 34.480469 C 12.527344 34.996094 13.644531 35.476562 14.800781 35.921875 C 14.691406 36.078125 14.585938 36.238281 14.480469 36.398438 C 14.898438 36.78125 14.847656 36.886719 14.320312 36.71875 C 14.242188 36.996094 14.1875 37.261719 14.160156 37.519531 C 13.6875 36.96875 13.738281 36.488281 14.320312 36.078125 C 14.105469 35.867188 13.894531 35.867188 13.679688 36.078125 C 13.34375 36.367188 13.160156 36.742188 13.121094 37.199219 C 12.964844 36.839844 12.882812 36.46875 12.878906 36.078125 C 13.039062 36.078125 13.199219 36.078125 13.359375 36.078125 C 13.363281 35.660156 13.148438 35.445312 12.71875 35.441406 C 12.351562 35.742188 12.058594 36.117188 11.839844 36.558594 C 11.746094 36.335938 11.773438 36.121094 11.921875 35.921875 C 11.746094 35.726562 11.535156 35.621094 11.28125 35.601562 C 11.191406 35.589844 11.140625 35.539062 11.121094 35.441406 C 11.238281 35.332031 11.34375 35.222656 11.441406 35.121094 C 11.40625 34.921875 11.296875 34.761719 11.121094 34.640625 C 11.191406 34.511719 11.300781 34.460938 11.441406 34.480469 Z M 11.441406 34.480469 "/>
<path style=" stroke:none;fill-rule:evenodd;fill:rgb(81.960784%,81.960784%,81.960784%);fill-opacity:1;" d="M 11.761719 35.121094 C 12.3125 35.148438 12.367188 35.308594 11.921875 35.601562 C 11.777344 35.46875 11.726562 35.308594 11.761719 35.121094 Z M 11.761719 35.121094 "/>
<path style=" stroke:none;fill-rule:evenodd;fill:rgb(12.156863%,13.333333%,13.72549%);fill-opacity:1;" d="M 28.238281 34.640625 C 28.375 34.695312 28.425781 34.800781 28.398438 34.960938 C 28.425781 35.386719 28.585938 35.761719 28.878906 36.078125 C 28.484375 36.132812 28.058594 36.15625 27.601562 36.160156 C 27.527344 36.09375 27.472656 36.015625 27.441406 35.921875 C 27.636719 35.304688 27.742188 35.304688 27.761719 35.921875 C 27.921875 35.921875 28.078125 35.921875 28.238281 35.921875 C 28.273438 35.566406 28.140625 35.300781 27.839844 35.121094 C 27.511719 35.328125 27.164062 35.40625 26.800781 35.359375 C 27.238281 35.035156 27.71875 34.792969 28.238281 34.640625 Z M 28.238281 34.640625 "/>
<path style=" stroke:none;fill-rule:evenodd;fill:rgb(11.372549%,12.156863%,12.941176%);fill-opacity:1;" d="M 26.480469 35.601562 C 26.679688 35.867188 26.945312 36.054688 27.28125 36.160156 C 27.054688 36.390625 26.789062 36.523438 26.480469 36.558594 C 26.480469 36.238281 26.480469 35.921875 26.480469 35.601562 Z M 26.480469 35.601562 "/>
<path style=" stroke:none;fill-rule:evenodd;fill:rgb(20%,20.784314%,20.392157%);fill-opacity:1;" d="M 23.121094 36.238281 C 23.441406 36.238281 23.761719 36.238281 24.078125 36.238281 C 24.078125 36.453125 24.078125 36.667969 24.078125 36.878906 C 24.25 36.855469 24.410156 36.882812 24.558594 36.960938 C 24.359375 37.109375 24.144531 37.242188 23.921875 37.359375 C 23.996094 37.515625 24.101562 37.648438 24.238281 37.761719 C 23.847656 37.746094 23.582031 37.53125 23.441406 37.121094 C 23.675781 37.007812 23.78125 36.820312 23.761719 36.558594 C 23.441406 36.613281 23.230469 36.507812 23.121094 36.238281 Z M 23.121094 36.238281 "/>
<path style=" stroke:none;fill-rule:evenodd;fill:rgb(20.392157%,21.176471%,21.176471%);fill-opacity:1;" d="M 26.480469 35.601562 C 25.78125 35.953125 25.675781 36.433594 26.160156 37.039062 C 26.160156 37.09375 26.160156 37.148438 26.160156 37.199219 C 26.332031 37.375 26.441406 37.589844 26.480469 37.839844 C 26.085938 38.429688 25.605469 38.480469 25.039062 38 C 25.472656 38.054688 25.898438 37.972656 26.320312 37.761719 C 26.085938 37.800781 25.875 37.773438 25.679688 37.679688 C 25.800781 37.375 25.800781 37.054688 25.679688 36.71875 C 25.464844 36.71875 25.253906 36.71875 25.039062 36.71875 C 25 37.105469 25.160156 37.371094 25.519531 37.519531 C 25.464844 37.574219 25.414062 37.625 25.359375 37.679688 C 24.46875 37.050781 24.519531 36.570312 25.519531 36.238281 C 25.210938 36.074219 24.890625 36.074219 24.558594 36.238281 C 24.261719 36.242188 24.207031 36.164062 24.398438 36 C 25.046875 35.894531 25.660156 35.707031 26.238281 35.441406 C 26.363281 35.453125 26.441406 35.503906 26.480469 35.601562 Z M 26.480469 35.601562 "/>
<path style=" stroke:none;fill-rule:evenodd;fill:rgb(9.803922%,10.196078%,10.196078%);fill-opacity:1;" d="M 21.039062 36.878906 C 20.667969 36.773438 20.292969 36.667969 19.921875 36.558594 C 20.9375 36.523438 21.949219 36.496094 22.960938 36.480469 C 22.894531 37.035156 22.839844 37.597656 22.800781 38.160156 C 22.582031 37.996094 22.421875 37.785156 22.320312 37.519531 C 22.121094 37.640625 21.910156 37.691406 21.679688 37.679688 C 21.726562 37.34375 21.675781 37.023438 21.519531 36.71875 C 21.386719 37.246094 21.308594 37.777344 21.28125 38.320312 C 21.078125 38.09375 20.996094 37.828125 21.039062 37.519531 C 20.78125 37.496094 20.59375 37.605469 20.480469 37.839844 C 20.289062 37.667969 20.210938 37.457031 20.238281 37.199219 C 20.605469 37.269531 20.871094 37.160156 21.039062 36.878906 Z M 21.039062 36.878906 "/>
<path style=" stroke:none;fill-rule:evenodd;fill:rgb(39.607843%,40.392157%,40%);fill-opacity:1;" d="M 19.921875 36.558594 C 20.292969 36.667969 20.667969 36.773438 21.039062 36.878906 C 20.601562 36.929688 20.171875 36.875 19.761719 36.71875 C 19.78125 36.621094 19.832031 36.570312 19.921875 36.558594 Z M 19.921875 36.558594 "/>
<path style=" stroke:none;fill-rule:evenodd;fill:rgb(15.294118%,15.686275%,15.294118%);fill-opacity:1;" d="M 17.839844 35.761719 C 18.488281 35.765625 18.914062 36.085938 19.121094 36.71875 C 19.027344 37.199219 18.917969 37.679688 18.800781 38.160156 C 18.722656 37.613281 18.5625 37.105469 18.320312 36.640625 C 18.730469 36.417969 18.703125 36.230469 18.238281 36.078125 C 17.964844 36.183594 17.9375 36.34375 18.160156 36.558594 C 17.921875 37.0625 17.761719 37.59375 17.679688 38.160156 C 17.527344 37.855469 17.472656 37.535156 17.519531 37.199219 C 17.308594 37.199219 17.09375 37.199219 16.878906 37.199219 C 16.960938 37.523438 16.988281 37.84375 16.960938 38.160156 C 16.277344 37.324219 16.464844 36.871094 17.519531 36.800781 C 17.117188 36.601562 16.691406 36.519531 16.238281 36.558594 C 16.171875 37.019531 16.011719 37.445312 15.761719 37.839844 C 15.21875 37.582031 15.003906 37.15625 15.121094 36.558594 C 15.664062 36.582031 15.714844 36.742188 15.28125 37.039062 C 15.828125 37.242188 16.039062 37.027344 15.921875 36.398438 C 15.492188 36.445312 15.25 36.285156 15.199219 35.921875 C 16.042969 36.296875 16.921875 36.429688 17.839844 36.320312 C 17.652344 36.136719 17.652344 35.949219 17.839844 35.761719 Z M 17.839844 35.761719 "/>
<path style=" stroke:none;fill-rule:evenodd;fill:rgb(82.745098%,83.529412%,83.137255%);fill-opacity:1;" d="M 22 36.71875 C 22.160156 36.71875 22.320312 36.71875 22.480469 36.71875 C 22.480469 36.878906 22.480469 37.039062 22.480469 37.199219 C 22.320312 37.199219 22.160156 37.199219 22 37.199219 C 22 37.039062 22 36.878906 22 36.71875 Z M 22 36.71875 "/>
</g>
</svg>
