<?xml version="1.0" encoding="UTF-8"?>
<svg xmlns="http://www.w3.org/2000/svg" xmlns:xlink="http://www.w3.org/1999/xlink" width="40px" height="40px" viewBox="0 0 40 40" version="1.1">
<g id="surface1">
<path style=" stroke:none;fill-rule:evenodd;fill:rgb(99.607843%,99.215686%,99.215686%);fill-opacity:1;" d="M -0.078125 -0.101562 C 13.257812 -0.101562 26.589844 -0.101562 39.921875 -0.101562 C 39.921875 13.230469 39.921875 26.5625 39.921875 39.898438 C 26.589844 39.898438 13.257812 39.898438 -0.078125 39.898438 C -0.078125 26.5625 -0.078125 13.230469 -0.078125 -0.101562 Z M -0.078125 -0.101562 "/>
<path style=" stroke:none;fill-rule:evenodd;fill:rgb(83.529412%,51.372549%,56.078431%);fill-opacity:1;" d="M 14.75 7.113281 C 15.800781 6.910156 16.882812 6.839844 17.992188 6.90625 C 18.039062 7.433594 17.988281 7.914062 17.835938 8.351562 C 17.835938 7.9375 17.835938 7.527344 17.835938 7.113281 C 16.808594 7.113281 15.777344 7.113281 14.75 7.113281 Z M 14.75 7.113281 "/>
<path style=" stroke:none;fill-rule:evenodd;fill:rgb(78.823529%,45.882353%,51.764706%);fill-opacity:1;" d="M 21.542969 7.113281 C 22.597656 6.910156 23.675781 6.839844 24.789062 6.90625 C 24.789062 7.386719 24.789062 7.871094 24.789062 8.351562 C 24.734375 8.351562 24.683594 8.351562 24.632812 8.351562 C 24.632812 7.9375 24.632812 7.527344 24.632812 7.113281 C 23.605469 7.113281 22.574219 7.113281 21.542969 7.113281 Z M 21.542969 7.113281 "/>
<path style=" stroke:none;fill-rule:evenodd;fill:rgb(58.823529%,12.156863%,19.215686%);fill-opacity:1;" d="M 21.542969 7.113281 C 22.574219 7.113281 23.605469 7.113281 24.632812 7.113281 C 24.632812 7.527344 24.632812 7.9375 24.632812 8.351562 C 24.375 8.351562 24.117188 8.351562 23.859375 8.351562 C 23.910156 9.488281 23.859375 10.589844 23.707031 11.648438 C 23.65625 10.472656 23.707031 9.304688 23.859375 8.144531 C 24.050781 7.992188 24.257812 7.921875 24.480469 7.9375 C 24.480469 7.730469 24.480469 7.527344 24.480469 7.320312 C 23.601562 7.285156 22.726562 7.320312 21.851562 7.421875 C 21.722656 7.632812 21.671875 7.871094 21.699219 8.144531 C 21.945312 8.089844 22.152344 8.15625 22.316406 8.351562 C 22.058594 8.351562 21.800781 8.351562 21.542969 8.351562 C 21.542969 7.9375 21.542969 7.527344 21.542969 7.113281 Z M 21.542969 7.113281 "/>
<path style=" stroke:none;fill-rule:evenodd;fill:rgb(72.54902%,12.54902%,20.392157%);fill-opacity:1;" d="M 23.707031 11.648438 C 23.515625 11.695312 23.363281 11.832031 23.242188 12.0625 C 23.039062 11.894531 22.859375 11.6875 22.703125 11.441406 C 22.675781 10.511719 22.597656 9.617188 22.472656 8.761719 C 22.496094 8.558594 22.445312 8.421875 22.316406 8.351562 C 22.152344 8.15625 21.945312 8.089844 21.699219 8.144531 C 21.671875 7.871094 21.722656 7.632812 21.851562 7.421875 C 22.726562 7.320312 23.601562 7.285156 24.480469 7.320312 C 24.480469 7.527344 24.480469 7.730469 24.480469 7.9375 C 24.257812 7.921875 24.050781 7.992188 23.859375 8.144531 C 23.707031 9.304688 23.65625 10.472656 23.707031 11.648438 Z M 23.707031 11.648438 "/>
<path style=" stroke:none;fill-rule:evenodd;fill:rgb(91.764706%,67.058824%,69.803922%);fill-opacity:1;" d="M 21.542969 8.351562 C 21.800781 8.351562 22.058594 8.351562 22.316406 8.351562 C 22.445312 8.421875 22.496094 8.558594 22.472656 8.761719 C 22.472656 9.726562 22.472656 10.6875 22.472656 11.648438 C 22.320312 10.660156 22.265625 9.628906 22.316406 8.558594 C 22.019531 8.617188 21.761719 8.546875 21.542969 8.351562 Z M 21.542969 8.351562 "/>
<path style=" stroke:none;fill-rule:evenodd;fill:rgb(67.058824%,37.647059%,42.352941%);fill-opacity:1;" d="M 25.40625 9.792969 C 26.300781 9.589844 27.230469 9.519531 28.183594 9.585938 C 28.183594 10.070312 28.183594 10.550781 28.183594 11.03125 C 28.132812 11.03125 28.082031 11.03125 28.03125 11.03125 C 28.03125 10.617188 28.03125 10.207031 28.03125 9.792969 C 27.15625 9.792969 26.28125 9.792969 25.40625 9.792969 Z M 25.40625 9.792969 "/>
<path style=" stroke:none;fill-rule:evenodd;fill:rgb(70.980392%,12.156863%,19.607843%);fill-opacity:1;" d="M 14.75 7.113281 C 15.777344 7.113281 16.808594 7.113281 17.835938 7.113281 C 17.835938 7.527344 17.835938 7.9375 17.835938 8.351562 C 17.542969 8.292969 17.285156 8.359375 17.066406 8.558594 C 16.789062 9.636719 16.660156 10.804688 16.679688 12.0625 C 16.386719 11.765625 16.128906 11.421875 15.90625 11.03125 C 15.878906 10.167969 15.804688 9.34375 15.675781 8.558594 C 15.402344 8.359375 15.09375 8.289062 14.75 8.351562 C 14.75 7.9375 14.75 7.527344 14.75 7.113281 Z M 14.75 7.113281 "/>
<path style=" stroke:none;fill-rule:evenodd;fill:rgb(82.352941%,52.54902%,55.294118%);fill-opacity:1;" d="M 14.75 8.351562 C 15.09375 8.289062 15.402344 8.359375 15.675781 8.558594 C 15.675781 9.449219 15.675781 10.34375 15.675781 11.238281 C 15.523438 10.382812 15.472656 9.492188 15.519531 8.558594 C 15.226562 8.617188 14.96875 8.546875 14.75 8.351562 Z M 14.75 8.351562 "/>
<path style=" stroke:none;fill-rule:evenodd;fill:rgb(61.568627%,16.470588%,21.568627%);fill-opacity:1;" d="M 15.675781 8.558594 C 15.804688 9.34375 15.878906 10.167969 15.90625 11.03125 C 16.128906 11.421875 16.386719 11.765625 16.679688 12.0625 C 16.660156 10.804688 16.789062 9.636719 17.066406 8.558594 C 17.089844 10 17.066406 11.445312 16.988281 12.886719 C 16.519531 12.355469 16.082031 11.804688 15.675781 11.238281 C 15.675781 10.34375 15.675781 9.449219 15.675781 8.558594 Z M 15.675781 8.558594 "/>
<path style=" stroke:none;fill-rule:evenodd;fill:rgb(72.156863%,14.117647%,20.392157%);fill-opacity:1;" d="M 15.058594 11.441406 C 15.058594 11.648438 15.058594 11.855469 15.058594 12.0625 C 14.589844 12.285156 14.128906 12.285156 13.667969 12.0625 C 13.5625 12.171875 13.484375 12.308594 13.4375 12.472656 C 13.332031 13.847656 13.332031 15.222656 13.4375 16.597656 C 13.480469 16.785156 13.554688 16.925781 13.667969 17.011719 C 13.667969 17.148438 13.71875 17.214844 13.824219 17.214844 C 13.933594 17.402344 14.085938 17.472656 14.285156 17.421875 C 14.285156 17.699219 14.285156 17.972656 14.285156 18.246094 C 13.359375 18.246094 12.433594 18.246094 11.503906 18.246094 C 11.503906 17.902344 11.503906 17.558594 11.503906 17.214844 C 11.816406 17.214844 12.125 17.214844 12.433594 17.214844 C 12.484375 15.117188 12.429688 13.054688 12.277344 11.03125 C 11.96875 11.03125 11.660156 11.03125 11.351562 11.03125 C 11.351562 10.550781 11.351562 10.070312 11.351562 9.585938 C 12.949219 9.054688 14.1875 9.675781 15.058594 11.441406 Z M 15.058594 11.441406 "/>
<path style=" stroke:none;fill-rule:evenodd;fill:rgb(98.823529%,82.745098%,84.313725%);fill-opacity:1;" d="M 24.632812 8.351562 C 24.683594 8.351562 24.734375 8.351562 24.789062 8.351562 C 24.570312 8.546875 24.3125 8.617188 24.015625 8.558594 C 23.964844 9.628906 24.015625 10.660156 24.167969 11.648438 C 23.863281 12.296875 23.53125 12.914062 23.167969 13.503906 C 23.011719 13.390625 22.882812 13.253906 22.78125 13.09375 C 22.636719 12.628906 22.433594 12.214844 22.164062 11.855469 C 22.316406 11.890625 22.417969 11.824219 22.472656 11.648438 C 22.667969 11.984375 22.875 12.328125 23.089844 12.679688 C 23.40625 12.453125 23.613281 12.109375 23.707031 11.648438 C 23.859375 10.589844 23.910156 9.488281 23.859375 8.351562 C 24.117188 8.351562 24.375 8.351562 24.632812 8.351562 Z M 24.632812 8.351562 "/>
<path style=" stroke:none;fill-rule:evenodd;fill:rgb(61.568627%,18.823529%,24.705882%);fill-opacity:1;" d="M 22.472656 8.761719 C 22.597656 9.617188 22.675781 10.511719 22.703125 11.441406 C 22.859375 11.6875 23.039062 11.894531 23.242188 12.0625 C 23.363281 11.832031 23.515625 11.695312 23.707031 11.648438 C 23.613281 12.109375 23.40625 12.453125 23.089844 12.679688 C 22.875 12.328125 22.667969 11.984375 22.472656 11.648438 C 22.472656 10.6875 22.472656 9.726562 22.472656 8.761719 Z M 22.472656 8.761719 "/>
<path style=" stroke:none;fill-rule:evenodd;fill:rgb(99.607843%,76.078431%,81.176471%);fill-opacity:1;" d="M 28.03125 11.03125 C 28.082031 11.03125 28.132812 11.03125 28.183594 11.03125 C 27.964844 11.226562 27.707031 11.296875 27.414062 11.238281 C 27.414062 13.160156 27.414062 15.085938 27.414062 17.011719 C 27.363281 17.011719 27.308594 17.011719 27.257812 17.011719 C 27.257812 15.015625 27.257812 13.023438 27.257812 11.03125 C 27.515625 11.03125 27.773438 11.03125 28.03125 11.03125 Z M 28.03125 11.03125 "/>
<path style=" stroke:none;fill-rule:evenodd;fill:rgb(77.254902%,50.588235%,55.294118%);fill-opacity:1;" d="M 11.351562 11.03125 C 11.660156 11.03125 11.96875 11.03125 12.277344 11.03125 C 12.328125 13.0625 12.277344 15.054688 12.125 17.011719 C 12.125 15.085938 12.125 13.160156 12.125 11.238281 C 11.828125 11.296875 11.570312 11.226562 11.351562 11.03125 Z M 11.351562 11.03125 "/>
<path style=" stroke:none;fill-rule:evenodd;fill:rgb(68.235294%,17.254902%,22.745098%);fill-opacity:1;" d="M 15.058594 11.441406 C 15.40625 11.5625 15.664062 11.835938 15.832031 12.269531 C 15.429688 12.507812 15.171875 12.816406 15.058594 13.195312 C 15.367188 13.8125 15.703125 13.917969 16.0625 13.503906 C 16.011719 13.972656 16.089844 14.457031 16.292969 14.949219 C 16.878906 15.558594 17.496094 16.109375 18.148438 16.597656 C 18.28125 17.328125 18.589844 17.875 19.074219 18.246094 C 19.074219 18.316406 19.074219 18.386719 19.074219 18.453125 C 17.898438 17.300781 16.765625 16.0625 15.675781 14.742188 C 15.230469 14.140625 14.765625 13.589844 14.285156 13.09375 C 14.1875 12.824219 14.03125 12.617188 13.824219 12.472656 C 13.667969 13.980469 13.617188 15.492188 13.667969 17.011719 C 13.554688 16.925781 13.480469 16.785156 13.4375 16.597656 C 13.332031 15.222656 13.332031 13.847656 13.4375 12.472656 C 13.484375 12.308594 13.5625 12.171875 13.667969 12.0625 C 14.128906 12.285156 14.589844 12.285156 15.058594 12.0625 C 15.058594 11.855469 15.058594 11.648438 15.058594 11.441406 Z M 15.058594 11.441406 "/>
<path style=" stroke:none;fill-rule:evenodd;fill:rgb(67.45098%,17.647059%,23.529412%);fill-opacity:1;" d="M 22.164062 11.855469 C 22.433594 12.214844 22.636719 12.628906 22.78125 13.09375 C 22.539062 12.703125 22.230469 12.496094 21.851562 12.472656 C 21.835938 12.824219 21.78125 13.167969 21.699219 13.503906 C 21.894531 13.960938 22.050781 14.441406 22.164062 14.949219 C 21.660156 14.101562 21.117188 13.277344 20.539062 12.472656 C 20.480469 12.519531 20.453125 12.589844 20.464844 12.679688 C 20.359375 14.535156 20.257812 16.390625 20.15625 18.246094 C 20.128906 16.320312 20.15625 14.398438 20.230469 12.472656 C 20.691406 12.171875 21.078125 12.308594 21.390625 12.886719 C 21.550781 11.863281 21.34375 10.972656 20.773438 10.207031 C 19.953125 10 19.132812 9.933594 18.300781 10 C 18.300781 10.207031 18.300781 10.414062 18.300781 10.617188 C 18.605469 10.570312 18.886719 10.636719 19.152344 10.824219 C 19.277344 12.441406 19.25 14.023438 19.074219 15.566406 C 19.074219 14.054688 19.074219 12.542969 19.074219 11.03125 C 18.765625 11.03125 18.457031 11.03125 18.148438 11.03125 C 18.148438 10.550781 18.148438 10.070312 18.148438 9.585938 C 19.074219 9.554688 20 9.585938 20.925781 9.691406 C 21.371094 10.386719 21.785156 11.109375 22.164062 11.855469 Z M 22.164062 11.855469 "/>
<path style=" stroke:none;fill-rule:evenodd;fill:rgb(61.960784%,13.72549%,20%);fill-opacity:1;" d="M 12.277344 11.03125 C 12.429688 13.054688 12.484375 15.117188 12.433594 17.214844 C 12.125 17.214844 11.816406 17.214844 11.503906 17.214844 C 11.503906 17.558594 11.503906 17.902344 11.503906 18.246094 C 12.433594 18.246094 13.359375 18.246094 14.285156 18.246094 C 14.285156 17.972656 14.285156 17.699219 14.285156 17.421875 C 14.085938 17.472656 13.933594 17.402344 13.824219 17.214844 C 14.027344 17.214844 14.234375 17.214844 14.441406 17.214844 C 14.441406 17.628906 14.441406 18.042969 14.441406 18.453125 C 13.410156 18.453125 12.382812 18.453125 11.351562 18.453125 C 11.351562 17.972656 11.351562 17.492188 11.351562 17.011719 C 11.609375 17.011719 11.867188 17.011719 12.125 17.011719 C 12.277344 15.054688 12.328125 13.0625 12.277344 11.03125 Z M 12.277344 11.03125 "/>
<path style=" stroke:none;fill-rule:evenodd;fill:rgb(93.333333%,69.019608%,72.941176%);fill-opacity:1;" d="M 18.148438 11.03125 C 18.457031 11.03125 18.765625 11.03125 19.074219 11.03125 C 19.074219 12.542969 19.074219 14.054688 19.074219 15.566406 C 19.074219 15.636719 19.074219 15.703125 19.074219 15.773438 C 18.921875 15.808594 18.816406 15.738281 18.765625 15.566406 C 18.917969 14.164062 18.96875 12.71875 18.917969 11.238281 C 18.625 11.296875 18.367188 11.226562 18.148438 11.03125 Z M 18.148438 11.03125 "/>
<path style=" stroke:none;fill-rule:evenodd;fill:rgb(63.921569%,16.078431%,21.960784%);fill-opacity:1;" d="M 27.566406 17.214844 C 27.722656 17.214844 27.875 17.214844 28.03125 17.214844 C 28.03125 17.628906 28.03125 18.042969 28.03125 18.453125 C 27.054688 18.453125 26.074219 18.453125 25.097656 18.453125 C 25.097656 18.042969 25.097656 17.628906 25.097656 17.214844 C 25.34375 17.273438 25.550781 17.203125 25.714844 17.011719 C 25.917969 15.53125 25.917969 14.019531 25.714844 12.472656 C 25.621094 12.5 25.570312 12.570312 25.558594 12.679688 C 25.019531 13.429688 24.558594 14.257812 24.167969 15.15625 C 23.808594 15.667969 23.476562 16.21875 23.167969 16.804688 C 22.933594 16.453125 22.703125 16.109375 22.472656 15.773438 C 22.367188 15.566406 22.265625 15.359375 22.164062 15.15625 C 22.328125 15.164062 22.484375 15.230469 22.625 15.359375 C 22.769531 15.679688 22.949219 15.957031 23.167969 16.1875 C 23.59375 15.605469 23.902344 14.917969 24.09375 14.125 C 24.632812 13.917969 24.867188 13.4375 24.789062 12.679688 C 25.160156 12.695312 25.445312 12.488281 25.636719 12.0625 C 25.832031 12.117188 25.984375 12.253906 26.101562 12.472656 C 26.039062 14.113281 26.011719 15.761719 26.023438 17.421875 C 25.765625 17.421875 25.507812 17.421875 25.25 17.421875 C 25.25 17.699219 25.25 17.972656 25.25 18.246094 C 26.125 18.246094 27 18.246094 27.875 18.246094 C 27.898438 17.824219 27.792969 17.480469 27.566406 17.214844 Z M 27.566406 17.214844 "/>
<path style=" stroke:none;fill-rule:evenodd;fill:rgb(97.254902%,83.921569%,85.882353%);fill-opacity:1;" d="M 14.285156 13.09375 C 14.132812 13.09375 13.976562 13.09375 13.824219 13.09375 C 13.824219 14.328125 13.824219 15.566406 13.824219 16.804688 C 14.078125 16.761719 14.308594 16.828125 14.515625 17.011719 C 14.640625 17.535156 14.613281 18.015625 14.441406 18.453125 C 14.441406 18.042969 14.441406 17.628906 14.441406 17.214844 C 14.234375 17.214844 14.027344 17.214844 13.824219 17.214844 C 13.71875 17.214844 13.667969 17.148438 13.667969 17.011719 C 13.617188 15.492188 13.667969 13.980469 13.824219 12.472656 C 14.03125 12.617188 14.1875 12.824219 14.285156 13.09375 Z M 14.285156 13.09375 "/>
<path style=" stroke:none;fill-rule:evenodd;fill:rgb(52.156863%,8.235294%,13.72549%);fill-opacity:1;" d="M 20.464844 12.679688 C 20.464844 14.605469 20.464844 16.527344 20.464844 18.453125 C 20 18.453125 19.535156 18.453125 19.074219 18.453125 C 19.074219 18.386719 19.074219 18.316406 19.074219 18.246094 C 19.433594 18.246094 19.792969 18.246094 20.15625 18.246094 C 20.257812 16.390625 20.359375 14.535156 20.464844 12.679688 Z M 20.464844 12.679688 "/>
<path style=" stroke:none;fill-rule:evenodd;fill:rgb(92.54902%,66.27451%,69.803922%);fill-opacity:1;" d="M 25.558594 12.679688 C 25.570312 12.570312 25.621094 12.5 25.714844 12.472656 C 25.917969 14.019531 25.917969 15.53125 25.714844 17.011719 C 25.765625 15.527344 25.714844 14.085938 25.558594 12.679688 Z M 25.558594 12.679688 "/>
<path style=" stroke:none;fill-rule:evenodd;fill:rgb(71.372549%,12.54902%,19.607843%);fill-opacity:1;" d="M 25.40625 9.792969 C 26.28125 9.792969 27.15625 9.792969 28.03125 9.792969 C 28.03125 10.207031 28.03125 10.617188 28.03125 11.03125 C 27.773438 11.03125 27.515625 11.03125 27.257812 11.03125 C 27.257812 13.023438 27.257812 15.015625 27.257812 17.011719 C 27.3125 17.183594 27.414062 17.25 27.566406 17.214844 C 27.792969 17.480469 27.898438 17.824219 27.875 18.246094 C 27 18.246094 26.125 18.246094 25.25 18.246094 C 25.25 17.972656 25.25 17.699219 25.25 17.421875 C 25.507812 17.421875 25.765625 17.421875 26.023438 17.421875 C 26.011719 15.761719 26.039062 14.113281 26.101562 12.472656 C 25.984375 12.253906 25.832031 12.117188 25.636719 12.0625 C 25.445312 12.488281 25.160156 12.695312 24.789062 12.679688 C 24.867188 13.4375 24.632812 13.917969 24.09375 14.125 C 23.902344 14.917969 23.59375 15.605469 23.167969 16.1875 C 22.949219 15.957031 22.769531 15.679688 22.625 15.359375 C 22.484375 15.230469 22.328125 15.164062 22.164062 15.15625 C 22.164062 15.085938 22.164062 15.015625 22.164062 14.949219 C 22.050781 14.441406 21.894531 13.960938 21.699219 13.503906 C 21.78125 13.167969 21.835938 12.824219 21.851562 12.472656 C 22.230469 12.496094 22.539062 12.703125 22.78125 13.09375 C 22.882812 13.253906 23.011719 13.390625 23.167969 13.503906 C 23.53125 12.914062 23.863281 12.296875 24.167969 11.648438 C 24.546875 10.992188 24.957031 10.375 25.40625 9.792969 Z M 25.40625 9.792969 "/>
<path style=" stroke:none;fill-rule:evenodd;fill:rgb(73.72549%,11.764706%,19.607843%);fill-opacity:1;" d="M 20.15625 18.246094 C 19.792969 18.246094 19.433594 18.246094 19.074219 18.246094 C 18.589844 17.875 18.28125 17.328125 18.148438 16.597656 C 17.496094 16.109375 16.878906 15.558594 16.292969 14.949219 C 16.089844 14.457031 16.011719 13.972656 16.0625 13.503906 C 15.703125 13.917969 15.367188 13.8125 15.058594 13.195312 C 15.171875 12.816406 15.429688 12.507812 15.832031 12.269531 C 15.808594 12.421875 15.835938 12.558594 15.90625 12.679688 C 16.832031 13.878906 17.808594 14.980469 18.839844 15.980469 C 18.960938 15.964844 19.035156 15.894531 19.074219 15.773438 C 19.074219 15.703125 19.074219 15.636719 19.074219 15.566406 C 19.25 14.023438 19.277344 12.441406 19.152344 10.824219 C 18.886719 10.636719 18.605469 10.570312 18.300781 10.617188 C 18.300781 10.414062 18.300781 10.207031 18.300781 10 C 19.132812 9.933594 19.953125 10 20.773438 10.207031 C 21.34375 10.972656 21.550781 11.863281 21.390625 12.886719 C 21.078125 12.308594 20.691406 12.171875 20.230469 12.472656 C 20.15625 14.398438 20.128906 16.320312 20.15625 18.246094 Z M 20.15625 18.246094 "/>
<path style=" stroke:none;fill-rule:evenodd;fill:rgb(65.882353%,21.176471%,26.27451%);fill-opacity:1;" d="M 15.832031 12.269531 C 16.808594 13.367188 17.785156 14.46875 18.765625 15.566406 C 18.816406 15.738281 18.921875 15.808594 19.074219 15.773438 C 19.035156 15.894531 18.960938 15.964844 18.839844 15.980469 C 17.808594 14.980469 16.832031 13.878906 15.90625 12.679688 C 15.835938 12.558594 15.808594 12.421875 15.832031 12.269531 Z M 15.832031 12.269531 "/>
<path style=" stroke:none;fill-rule:evenodd;fill:rgb(97.254902%,85.490196%,87.058824%);fill-opacity:1;" d="M 24.167969 15.15625 C 24.078125 16.554688 23.976562 17.929688 23.859375 19.277344 C 23.910156 18.441406 23.859375 17.617188 23.707031 16.804688 C 23.492188 17.03125 23.3125 17.308594 23.167969 17.628906 C 22.957031 17.382812 22.777344 17.109375 22.625 16.804688 C 22.523438 17.558594 22.417969 18.316406 22.316406 19.070312 C 22.199219 19.300781 22.042969 19.4375 21.851562 19.484375 C 22.128906 18.40625 22.386719 17.339844 22.625 16.289062 C 22.507812 16.148438 22.457031 15.980469 22.472656 15.773438 C 22.703125 16.109375 22.933594 16.453125 23.167969 16.804688 C 23.476562 16.21875 23.808594 15.667969 24.167969 15.15625 Z M 24.167969 15.15625 "/>
<path style=" stroke:none;fill-rule:evenodd;fill:rgb(99.215686%,94.117647%,94.509804%);fill-opacity:1;" d="M 22.164062 14.949219 C 22.164062 15.015625 22.164062 15.085938 22.164062 15.15625 C 22.265625 15.359375 22.367188 15.566406 22.472656 15.773438 C 22.457031 15.980469 22.507812 16.148438 22.625 16.289062 C 22.386719 17.339844 22.128906 18.40625 21.851562 19.484375 C 20.226562 20.695312 18.65625 20.558594 17.144531 19.070312 C 17.3125 17.46875 16.875 16.300781 15.832031 15.566406 C 15.777344 15.394531 15.675781 15.324219 15.519531 15.359375 C 15.617188 15.175781 15.667969 14.972656 15.675781 14.742188 C 16.765625 16.0625 17.898438 17.300781 19.074219 18.453125 C 19.535156 18.453125 20 18.453125 20.464844 18.453125 C 20.464844 16.527344 20.464844 14.605469 20.464844 12.679688 C 20.453125 12.589844 20.480469 12.519531 20.539062 12.472656 C 21.117188 13.277344 21.660156 14.101562 22.164062 14.949219 Z M 22.164062 14.949219 "/>
<path style=" stroke:none;fill-rule:evenodd;fill:rgb(79.215686%,52.941176%,55.294118%);fill-opacity:1;" d="M 15.519531 15.359375 C 15.675781 15.324219 15.777344 15.394531 15.832031 15.566406 C 15.675781 16.902344 15.625 18.277344 15.675781 19.691406 C 15.523438 18.285156 15.472656 16.84375 15.519531 15.359375 Z M 15.519531 15.359375 "/>
<path style=" stroke:none;fill-rule:evenodd;fill:rgb(69.803922%,39.215686%,42.745098%);fill-opacity:1;" d="M 27.257812 17.011719 C 27.308594 17.011719 27.363281 17.011719 27.414062 17.011719 C 27.671875 17.011719 27.929688 17.011719 28.183594 17.011719 C 28.183594 17.492188 28.183594 17.972656 28.183594 18.453125 C 28.132812 18.453125 28.082031 18.453125 28.03125 18.453125 C 28.03125 18.042969 28.03125 17.628906 28.03125 17.214844 C 27.875 17.214844 27.722656 17.214844 27.566406 17.214844 C 27.414062 17.25 27.3125 17.183594 27.257812 17.011719 Z M 27.257812 17.011719 "/>
<path style=" stroke:none;fill-rule:evenodd;fill:rgb(86.666667%,62.352941%,64.705882%);fill-opacity:1;" d="M 25.714844 17.011719 C 25.550781 17.203125 25.34375 17.273438 25.097656 17.214844 C 25.097656 17.628906 25.097656 18.042969 25.097656 18.453125 C 26.074219 18.453125 27.054688 18.453125 28.03125 18.453125 C 28.082031 18.453125 28.132812 18.453125 28.183594 18.453125 C 27.132812 18.65625 26.050781 18.726562 24.941406 18.660156 C 24.941406 18.109375 24.941406 17.558594 24.941406 17.011719 C 25.199219 17.011719 25.457031 17.011719 25.714844 17.011719 Z M 25.714844 17.011719 "/>
<path style=" stroke:none;fill-rule:evenodd;fill:rgb(69.411765%,14.117647%,20.784314%);fill-opacity:1;" d="M 15.832031 15.566406 C 16.875 16.300781 17.3125 17.46875 17.144531 19.070312 C 18.65625 20.558594 20.226562 20.695312 21.851562 19.484375 C 22.042969 19.4375 22.199219 19.300781 22.316406 19.070312 C 22.417969 18.316406 22.523438 17.558594 22.625 16.804688 C 22.777344 17.109375 22.957031 17.382812 23.167969 17.628906 C 23.3125 17.308594 23.492188 17.03125 23.707031 16.804688 C 23.859375 17.617188 23.910156 18.441406 23.859375 19.277344 C 23.238281 20.28125 22.464844 21.039062 21.542969 21.546875 C 20.625 21.710938 19.695312 21.78125 18.765625 21.753906 C 17.523438 21.609375 16.492188 20.921875 15.675781 19.691406 C 15.625 18.277344 15.675781 16.902344 15.832031 15.566406 Z M 15.832031 15.566406 "/>
<path style=" stroke:none;fill-rule:evenodd;fill:rgb(96.862745%,80.784314%,82.352941%);fill-opacity:1;" d="M 21.542969 21.546875 C 21.050781 21.863281 20.511719 22 19.921875 21.957031 C 19.507812 21.957031 19.121094 21.890625 18.765625 21.753906 C 19.695312 21.78125 20.625 21.710938 21.542969 21.546875 Z M 21.542969 21.546875 "/>
<path style=" stroke:none;fill-rule:evenodd;fill:rgb(64.705882%,64.705882%,64.705882%);fill-opacity:1;" d="M 6.5625 25.464844 C 6.097656 25.429688 5.632812 25.464844 5.171875 25.566406 C 5.363281 25.613281 5.519531 25.71875 5.636719 25.875 C 5.429688 25.875 5.226562 25.875 5.019531 25.875 C 5.019531 25.671875 5.019531 25.464844 5.019531 25.257812 C 5.566406 25.191406 6.082031 25.261719 6.5625 25.464844 Z M 6.5625 25.464844 "/>
<path style=" stroke:none;fill-rule:evenodd;fill:rgb(37.647059%,37.647059%,37.647059%);fill-opacity:1;" d="M 6.5625 25.464844 C 6.398438 25.65625 6.191406 25.726562 5.945312 25.671875 C 5.996094 26.4375 5.945312 27.195312 5.792969 27.9375 C 5.640625 27.265625 5.585938 26.578125 5.636719 25.875 C 5.519531 25.71875 5.363281 25.613281 5.171875 25.566406 C 5.632812 25.464844 6.097656 25.429688 6.5625 25.464844 Z M 6.5625 25.464844 "/>
<path style=" stroke:none;fill-rule:evenodd;fill:rgb(66.27451%,66.27451%,66.666667%);fill-opacity:1;" d="M 8.417969 27.730469 C 8.441406 26.972656 8.417969 26.21875 8.339844 25.464844 C 8.308594 25.785156 8.230469 26.058594 8.109375 26.289062 C 8.109375 25.945312 8.109375 25.601562 8.109375 25.257812 C 8.261719 25.257812 8.417969 25.257812 8.570312 25.257812 C 8.621094 26.125 8.570312 26.949219 8.417969 27.730469 Z M 8.417969 27.730469 "/>
<path style=" stroke:none;fill-rule:evenodd;fill:rgb(35.686275%,35.686275%,36.078431%);fill-opacity:1;" d="M 10.269531 25.671875 C 9.910156 25.671875 9.550781 25.671875 9.1875 25.671875 C 9.1875 25.945312 9.1875 26.21875 9.1875 26.496094 C 9.535156 26.433594 9.84375 26.503906 10.117188 26.699219 C 9.808594 26.699219 9.5 26.699219 9.1875 26.699219 C 9.1875 26.976562 9.1875 27.25 9.1875 27.527344 C 9.550781 27.527344 9.910156 27.527344 10.269531 27.527344 C 9.890625 27.726562 9.480469 27.796875 9.035156 27.730469 C 9.035156 26.976562 9.035156 26.21875 9.035156 25.464844 C 9.480469 25.402344 9.890625 25.46875 10.269531 25.671875 Z M 10.269531 25.671875 "/>
<path style=" stroke:none;fill-rule:evenodd;fill:rgb(42.745098%,42.745098%,42.745098%);fill-opacity:1;" d="M 19.535156 26.289062 C 19.535156 26.496094 19.535156 26.699219 19.535156 26.90625 C 19.535156 27.113281 19.535156 27.320312 19.535156 27.527344 C 19.910156 27.460938 20.269531 27.53125 20.617188 27.730469 C 20.164062 27.933594 19.703125 28.003906 19.226562 27.9375 C 19.226562 27.042969 19.226562 26.152344 19.226562 25.257812 C 19.703125 25.191406 20.164062 25.261719 20.617188 25.464844 C 20.269531 25.664062 19.910156 25.734375 19.535156 25.671875 C 19.535156 25.875 19.535156 26.082031 19.535156 26.289062 Z M 19.535156 26.289062 "/>
<path style=" stroke:none;fill-rule:evenodd;fill:rgb(41.960784%,41.960784%,41.960784%);fill-opacity:1;" d="M 25.40625 25.257812 C 25.929688 25.191406 26.445312 25.261719 26.949219 25.464844 C 26.765625 25.65625 26.558594 25.722656 26.332031 25.671875 C 26.230469 28.695312 26.125 28.695312 26.023438 25.671875 C 25.71875 25.742188 25.511719 25.601562 25.40625 25.257812 Z M 25.40625 25.257812 "/>
<path style=" stroke:none;fill-rule:evenodd;fill:rgb(43.137255%,43.137255%,43.529412%);fill-opacity:1;" d="M 7.335938 26.289062 C 7.59375 26.289062 7.851562 26.289062 8.109375 26.289062 C 8.230469 26.058594 8.308594 25.785156 8.339844 25.464844 C 8.417969 26.21875 8.441406 26.972656 8.417969 27.730469 C 8.40625 27.84375 8.355469 27.914062 8.261719 27.9375 C 8.113281 27.546875 8.0625 27.136719 8.109375 26.699219 C 7.8125 26.640625 7.554688 26.710938 7.335938 26.90625 C 7.214844 27.136719 7.136719 27.410156 7.105469 27.730469 C 7 26.976562 7 26.21875 7.105469 25.464844 C 7.136719 25.785156 7.214844 26.058594 7.335938 26.289062 Z M 7.335938 26.289062 "/>
<path style=" stroke:none;fill-rule:evenodd;fill:rgb(58.039216%,58.039216%,58.039216%);fill-opacity:1;" d="M 16.292969 25.257812 C 16.449219 25.257812 16.601562 25.257812 16.757812 25.257812 C 16.78125 26.085938 16.757812 26.910156 16.679688 27.730469 C 16.617188 27.828125 16.539062 27.894531 16.449219 27.9375 C 16.292969 27.054688 16.242188 26.160156 16.292969 25.257812 Z M 16.292969 25.257812 "/>
<path style=" stroke:none;fill-rule:evenodd;fill:rgb(43.137255%,43.137255%,43.137255%);fill-opacity:1;" d="M 32.820312 25.257812 C 33.292969 25.191406 33.757812 25.261719 34.207031 25.464844 C 33.863281 25.664062 33.5 25.734375 33.128906 25.671875 C 33.128906 25.945312 33.128906 26.21875 33.128906 26.496094 C 34.363281 26.632812 34.363281 26.769531 33.128906 26.90625 C 33.171875 27.277344 33.121094 27.621094 32.972656 27.9375 C 32.820312 27.054688 32.769531 26.160156 32.820312 25.257812 Z M 32.820312 25.257812 "/>
<path style=" stroke:none;fill-rule:evenodd;fill:rgb(69.803922%,69.803922%,70.196078%);fill-opacity:1;" d="M 10.269531 25.671875 C 9.980469 25.808594 9.671875 25.945312 9.34375 26.082031 C 9.652344 26.21875 9.960938 26.355469 10.269531 26.496094 C 10.25 26.621094 10.199219 26.6875 10.117188 26.699219 C 9.84375 26.503906 9.535156 26.433594 9.1875 26.496094 C 9.1875 26.21875 9.1875 25.945312 9.1875 25.671875 C 9.550781 25.671875 9.910156 25.671875 10.269531 25.671875 Z M 10.269531 25.671875 "/>
<path style=" stroke:none;fill-rule:evenodd;fill:rgb(43.529412%,43.529412%,43.529412%);fill-opacity:1;" d="M 17.066406 25.257812 C 17.21875 25.238281 17.347656 25.308594 17.453125 25.464844 C 17.589844 25.980469 17.769531 26.460938 17.992188 26.90625 C 18.144531 26.496094 18.300781 26.085938 18.457031 25.671875 C 18.558594 25.394531 18.660156 25.394531 18.765625 25.671875 C 18.535156 26.449219 18.277344 27.207031 17.992188 27.9375 C 17.554688 27.117188 17.246094 26.226562 17.066406 25.257812 Z M 17.066406 25.257812 "/>
<path style=" stroke:none;fill-rule:evenodd;fill:rgb(43.137255%,43.137255%,43.137255%);fill-opacity:1;" d="M 27.257812 25.257812 C 27.371094 25.230469 27.476562 25.265625 27.566406 25.359375 C 27.703125 25.6875 27.855469 25.996094 28.03125 26.289062 C 28.253906 26.007812 28.460938 25.699219 28.648438 25.359375 C 28.777344 25.21875 28.878906 25.253906 28.957031 25.464844 C 28.484375 26.175781 28.175781 27 28.03125 27.9375 C 27.90625 27.472656 27.828125 26.988281 27.800781 26.496094 C 27.578125 26.105469 27.394531 25.691406 27.257812 25.257812 Z M 27.257812 25.257812 "/>
<path style=" stroke:none;fill-rule:evenodd;fill:rgb(65.490196%,65.490196%,65.490196%);fill-opacity:1;" d="M 19.535156 26.289062 C 19.851562 26.253906 20.160156 26.289062 20.464844 26.390625 C 20.535156 26.476562 20.585938 26.582031 20.617188 26.699219 C 20.269531 26.902344 19.910156 26.972656 19.535156 26.90625 C 19.535156 26.699219 19.535156 26.496094 19.535156 26.289062 Z M 19.535156 26.289062 "/>
<path style=" stroke:none;fill-rule:evenodd;fill:rgb(42.352941%,42.352941%,42.352941%);fill-opacity:1;" d="M 24.789062 25.257812 C 24.988281 25.613281 25.089844 26.058594 25.097656 26.597656 C 25.046875 27.042969 24.992188 27.492188 24.941406 27.9375 C 24.789062 27.054688 24.738281 26.160156 24.789062 25.257812 Z M 24.789062 25.257812 "/>
<path style=" stroke:none;fill-rule:evenodd;fill:rgb(44.313725%,44.313725%,44.313725%);fill-opacity:1;" d="M 14.132812 25.257812 C 14.246094 25.230469 14.347656 25.265625 14.441406 25.359375 C 14.71875 25.90625 15.027344 26.421875 15.367188 26.90625 C 15.46875 26.425781 15.574219 25.945312 15.675781 25.464844 C 16.078125 28.296875 15.71875 28.570312 14.59375 26.289062 C 14.492188 26.839844 14.390625 27.386719 14.285156 27.9375 C 14.132812 27.054688 14.082031 26.160156 14.132812 25.257812 Z M 14.132812 25.257812 "/>
<path style=" stroke:none;fill-rule:evenodd;fill:rgb(43.921569%,43.921569%,43.921569%);fill-opacity:1;" d="M 21.082031 25.257812 C 21.496094 25.222656 21.90625 25.257812 22.316406 25.359375 C 22.707031 25.949219 22.652344 26.5 22.164062 27.011719 C 22.488281 27.25 22.59375 27.5625 22.472656 27.9375 C 22.261719 27.761719 22.109375 27.523438 22.007812 27.214844 C 21.808594 27.117188 21.601562 27.082031 21.390625 27.113281 C 21.429688 27.417969 21.378906 27.691406 21.234375 27.9375 C 21.082031 27.054688 21.03125 26.160156 21.082031 25.257812 Z M 21.082031 25.257812 "/>
<path style=" stroke:none;fill-rule:evenodd;fill:rgb(92.156863%,92.156863%,92.156863%);fill-opacity:1;" d="M 21.390625 25.671875 C 21.96875 25.484375 22.277344 25.757812 22.316406 26.496094 C 22.007812 26.496094 21.699219 26.496094 21.390625 26.496094 C 21.390625 26.21875 21.390625 25.945312 21.390625 25.671875 Z M 21.390625 25.671875 "/>
<path style=" stroke:none;fill-rule:evenodd;fill:rgb(65.098039%,65.098039%,65.098039%);fill-opacity:1;" d="M 7.335938 26.289062 C 7.214844 26.058594 7.136719 25.785156 7.105469 25.464844 C 7 26.21875 7 26.976562 7.105469 27.730469 C 7.136719 27.410156 7.214844 27.136719 7.335938 26.90625 C 7.335938 27.25 7.335938 27.59375 7.335938 27.9375 C 7.179688 27.9375 7.027344 27.9375 6.871094 27.9375 C 6.871094 27.042969 6.871094 26.152344 6.871094 25.257812 C 7.027344 25.257812 7.179688 25.257812 7.335938 25.257812 C 7.335938 25.601562 7.335938 25.945312 7.335938 26.289062 Z M 7.335938 26.289062 "/>
<path style=" stroke:none;fill-rule:evenodd;fill:rgb(43.137255%,43.137255%,43.137255%);fill-opacity:1;" d="M 13.359375 25.257812 C 13.554688 25.46875 13.65625 25.777344 13.667969 26.1875 C 13.777344 27.488281 13.363281 28.039062 12.433594 27.835938 C 12.195312 27.460938 12.089844 27.011719 12.125 26.496094 C 12.175781 26.152344 12.226562 25.808594 12.277344 25.464844 C 12.40625 26.070312 12.480469 26.691406 12.507812 27.320312 C 12.765625 27.59375 13.023438 27.59375 13.28125 27.320312 C 13.359375 26.636719 13.382812 25.949219 13.359375 25.257812 Z M 13.359375 25.257812 "/>
<path style=" stroke:none;fill-rule:evenodd;fill:rgb(59.215686%,59.215686%,59.607843%);fill-opacity:1;" d="M 10.269531 25.671875 C 9.890625 25.46875 9.480469 25.402344 9.035156 25.464844 C 9.035156 26.21875 9.035156 26.976562 9.035156 27.730469 C 9.480469 27.796875 9.890625 27.726562 10.269531 27.527344 C 10.355469 27.539062 10.40625 27.605469 10.425781 27.730469 C 9.921875 27.933594 9.40625 28.003906 8.878906 27.9375 C 8.878906 27.042969 8.878906 26.152344 8.878906 25.257812 C 9.40625 25.191406 9.921875 25.261719 10.425781 25.464844 C 10.40625 25.589844 10.355469 25.65625 10.269531 25.671875 Z M 10.269531 25.671875 "/>
<path style=" stroke:none;fill-rule:evenodd;fill:rgb(43.529412%,43.529412%,43.529412%);fill-opacity:1;" d="M 23.398438 25.257812 C 23.703125 25.234375 23.960938 25.371094 24.167969 25.671875 C 23.9375 25.785156 23.679688 25.785156 23.398438 25.671875 C 23.363281 25.914062 23.414062 26.117188 23.550781 26.289062 C 24.179688 26.332031 24.410156 26.746094 24.246094 27.527344 C 23.816406 28.066406 23.378906 28.066406 22.933594 27.527344 C 23.277344 27.410156 23.636719 27.410156 24.015625 27.527344 C 24.050781 27.285156 23.996094 27.078125 23.859375 26.90625 C 22.890625 26.65625 22.734375 26.105469 23.398438 25.257812 Z M 23.398438 25.257812 "/>
<path style=" stroke:none;fill-rule:evenodd;fill:rgb(41.960784%,41.960784%,41.960784%);fill-opacity:1;" d="M 30.964844 25.257812 C 32.335938 25.261719 32.695312 26.050781 32.046875 27.628906 C 31.429688 28.117188 30.9375 27.945312 30.578125 27.113281 C 30.414062 26.371094 30.542969 25.753906 30.964844 25.257812 Z M 30.964844 25.257812 "/>
<path style=" stroke:none;fill-rule:evenodd;fill:rgb(95.294118%,95.294118%,95.294118%);fill-opacity:1;" d="M 31.121094 25.671875 C 32.070312 25.777344 32.273438 26.363281 31.738281 27.421875 C 31.316406 27.636719 31.035156 27.464844 30.886719 26.90625 C 30.773438 26.425781 30.851562 26.011719 31.121094 25.671875 Z M 31.121094 25.671875 "/>
<path style=" stroke:none;fill-rule:evenodd;fill:rgb(45.490196%,45.882353%,45.490196%);fill-opacity:1;" d="M 17.527344 28.761719 C 17.59375 33.609375 17.746094 33.609375 17.992188 28.761719 C 18.234375 29.363281 18.542969 29.914062 18.917969 30.414062 C 19.230469 29.992188 19.488281 29.511719 19.691406 28.96875 C 19.929688 28.773438 20.1875 28.703125 20.464844 28.761719 C 20.464844 30.136719 20.464844 31.511719 20.464844 32.886719 C 20.257812 32.886719 20.050781 32.886719 19.84375 32.886719 C 19.871094 31.992188 19.84375 31.097656 19.769531 30.207031 C 19.515625 30.71875 19.230469 31.199219 18.917969 31.648438 C 18.636719 31.167969 18.351562 30.6875 18.070312 30.207031 C 17.992188 31.097656 17.964844 31.992188 17.992188 32.886719 C 17.785156 32.886719 17.582031 32.886719 17.375 32.886719 C 17.324219 31.472656 17.375 30.097656 17.527344 28.761719 Z M 17.527344 28.761719 "/>
<path style=" stroke:none;fill-rule:evenodd;fill:rgb(42.352941%,42.352941%,42.352941%);fill-opacity:1;" d="M 32.046875 28.761719 C 33.667969 28.417969 34.414062 29.3125 34.285156 31.441406 C 33.371094 33.285156 32.394531 33.355469 31.351562 31.648438 C 31.089844 30.445312 31.320312 29.480469 32.046875 28.761719 Z M 32.046875 28.761719 "/>
<path style=" stroke:none;fill-rule:evenodd;fill:rgb(98.039216%,98.039216%,98.039216%);fill-opacity:1;" d="M 32.355469 29.382812 C 33.261719 29.160156 33.777344 29.640625 33.898438 30.824219 C 33.59375 32.011719 33.003906 32.351562 32.125 31.855469 C 31.761719 30.929688 31.839844 30.105469 32.355469 29.382812 Z M 32.355469 29.382812 "/>
<path style=" stroke:none;fill-rule:evenodd;fill:rgb(38.431373%,38.823529%,39.215686%);fill-opacity:1;" d="M 9.035156 31.03125 C 8.886719 31.394531 8.835938 31.808594 8.878906 32.269531 C 9.457031 32.203125 10.023438 32.269531 10.578125 32.472656 C 9.867188 32.679688 9.144531 32.746094 8.417969 32.679688 C 8.417969 31.375 8.417969 30.070312 8.417969 28.761719 C 9.1875 28.761719 9.960938 28.761719 10.734375 28.761719 C 10.734375 28.96875 10.734375 29.175781 10.734375 29.382812 C 10.117188 29.382812 9.5 29.382812 8.878906 29.382812 C 8.878906 29.726562 8.878906 30.070312 8.878906 30.414062 C 9.394531 30.414062 9.910156 30.414062 10.425781 30.414062 C 10.425781 30.617188 10.425781 30.824219 10.425781 31.03125 C 9.960938 31.03125 9.5 31.03125 9.035156 31.03125 Z M 9.035156 31.03125 "/>
<path style=" stroke:none;fill-rule:evenodd;fill:rgb(40.784314%,41.176471%,40.784314%);fill-opacity:1;" d="M 21.234375 28.761719 C 21.957031 28.761719 22.675781 28.761719 23.398438 28.761719 C 23.398438 28.96875 23.398438 29.175781 23.398438 29.382812 C 22.832031 29.382812 22.265625 29.382812 21.699219 29.382812 C 21.699219 29.726562 21.699219 30.070312 21.699219 30.414062 C 22.214844 30.414062 22.726562 30.414062 23.242188 30.414062 C 23.242188 30.617188 23.242188 30.824219 23.242188 31.03125 C 22.726562 31.03125 22.214844 31.03125 21.699219 31.03125 C 21.699219 31.375 21.699219 31.71875 21.699219 32.0625 C 22.265625 32.0625 22.832031 32.0625 23.398438 32.0625 C 23.398438 32.269531 23.398438 32.472656 23.398438 32.679688 C 22.675781 32.679688 21.957031 32.679688 21.234375 32.679688 C 21.234375 31.375 21.234375 30.070312 21.234375 28.761719 Z M 21.234375 28.761719 "/>
<path style=" stroke:none;fill-rule:evenodd;fill:rgb(41.960784%,42.352941%,42.745098%);fill-opacity:1;" d="M 11.042969 28.96875 C 11.230469 28.703125 11.433594 28.703125 11.660156 28.96875 C 11.960938 29.832031 12.191406 30.726562 12.355469 31.648438 C 12.621094 30.78125 12.824219 29.886719 12.972656 28.96875 C 13.183594 28.789062 13.414062 28.71875 13.667969 28.761719 C 13.792969 29.707031 14.023438 30.601562 14.363281 31.441406 C 14.621094 30.578125 14.800781 29.683594 14.902344 28.761719 C 15.132812 28.707031 15.335938 28.777344 15.519531 28.96875 C 15.273438 30.167969 14.964844 31.335938 14.59375 32.472656 C 14.410156 32.664062 14.203125 32.734375 13.976562 32.679688 C 13.851562 31.734375 13.621094 30.839844 13.28125 30 C 13.003906 30.945312 12.773438 31.90625 12.585938 32.886719 C 12.382812 32.886719 12.175781 32.886719 11.96875 32.886719 C 11.839844 31.476562 11.53125 30.171875 11.042969 28.96875 Z M 11.042969 28.96875 "/>
<path style=" stroke:none;fill-rule:evenodd;fill:rgb(40.392157%,40.784314%,41.568627%);fill-opacity:1;" d="M 5.171875 28.761719 C 5.335938 28.730469 5.492188 28.765625 5.636719 28.867188 C 6.125 29.65625 6.613281 30.445312 7.105469 31.238281 C 7.179688 30.414062 7.207031 29.589844 7.179688 28.761719 C 7.335938 28.761719 7.492188 28.761719 7.644531 28.761719 C 7.644531 30.070312 7.644531 31.375 7.644531 32.679688 C 6.890625 32.085938 6.273438 31.261719 5.792969 30.207031 C 5.78125 30.09375 5.730469 30.027344 5.636719 30 C 5.535156 30.824219 5.429688 31.648438 5.328125 32.472656 C 5.175781 31.246094 5.121094 30.007812 5.171875 28.761719 Z M 5.171875 28.761719 "/>
<path style=" stroke:none;fill-rule:evenodd;fill:rgb(41.568627%,41.568627%,41.568627%);fill-opacity:1;" d="M 24.015625 28.96875 C 24.183594 28.742188 24.390625 28.707031 24.632812 28.867188 C 24.859375 29.226562 25.0625 29.605469 25.25 30 C 25.515625 29.714844 25.722656 29.371094 25.867188 28.96875 C 26.074219 28.695312 26.28125 28.695312 26.488281 28.96875 C 26.167969 29.464844 25.910156 30.015625 25.714844 30.617188 C 25.933594 31.269531 26.191406 31.890625 26.488281 32.472656 C 26.351562 32.699219 26.199219 32.730469 26.023438 32.578125 C 25.785156 32.113281 25.527344 31.664062 25.25 31.238281 C 24.984375 31.59375 24.777344 32.003906 24.632812 32.472656 C 24.425781 32.75 24.222656 32.75 24.015625 32.472656 C 24.363281 31.882812 24.671875 31.265625 24.941406 30.617188 C 24.683594 30 24.375 29.453125 24.015625 28.96875 Z M 24.015625 28.96875 "/>
<path style=" stroke:none;fill-rule:evenodd;fill:rgb(37.254902%,37.647059%,37.647059%);fill-opacity:1;" d="M 27.257812 28.761719 C 27.414062 28.761719 27.566406 28.761719 27.722656 28.761719 C 27.722656 30.070312 27.722656 31.375 27.722656 32.679688 C 27.566406 32.679688 27.414062 32.679688 27.257812 32.679688 C 27.257812 31.375 27.257812 30.070312 27.257812 28.761719 Z M 27.257812 28.761719 "/>
<path style=" stroke:none;fill-rule:evenodd;fill:rgb(56.078431%,56.470588%,56.862745%);fill-opacity:1;" d="M 5.171875 28.761719 C 5.121094 30.007812 5.175781 31.246094 5.328125 32.472656 C 5.429688 31.648438 5.535156 30.824219 5.636719 30 C 5.730469 30.027344 5.78125 30.09375 5.792969 30.207031 C 5.664062 30.992188 5.585938 31.816406 5.558594 32.679688 C 5.402344 32.851562 5.222656 32.921875 5.019531 32.886719 C 4.96875 31.472656 5.019531 30.097656 5.171875 28.761719 Z M 5.171875 28.761719 "/>
<path style=" stroke:none;fill-rule:evenodd;fill:rgb(37.254902%,38.039216%,37.647059%);fill-opacity:1;" d="M 17.527344 28.761719 C 17.683594 28.761719 17.835938 28.761719 17.992188 28.761719 C 17.746094 33.609375 17.59375 33.609375 17.527344 28.761719 Z M 17.527344 28.761719 "/>
<path style=" stroke:none;fill-rule:evenodd;fill:rgb(44.313725%,44.705882%,44.313725%);fill-opacity:1;" d="M 29.113281 28.761719 C 29.578125 28.730469 30.042969 28.761719 30.5 28.867188 C 30.757812 29.015625 30.835938 29.257812 30.734375 29.585938 C 29.320312 28.867188 28.753906 29.484375 29.035156 31.441406 C 29.460938 32.089844 29.976562 32.226562 30.578125 31.855469 C 30.941406 31.960938 31.019531 32.199219 30.8125 32.578125 C 29.996094 33.085938 29.277344 32.914062 28.648438 32.0625 C 28.140625 30.769531 28.296875 29.667969 29.113281 28.761719 Z M 29.113281 28.761719 "/>
<path style=" stroke:none;fill-rule:evenodd;fill:rgb(70.980392%,71.372549%,71.764706%);fill-opacity:1;" d="M 9.035156 31.03125 C 9.035156 31.375 9.035156 31.71875 9.035156 32.0625 C 9.601562 32.0625 10.167969 32.0625 10.734375 32.0625 C 10.734375 32.335938 10.734375 32.613281 10.734375 32.886719 C 9.929688 32.953125 9.160156 32.882812 8.417969 32.679688 C 9.144531 32.746094 9.867188 32.679688 10.578125 32.472656 C 10.023438 32.269531 9.457031 32.203125 8.878906 32.269531 C 8.835938 31.808594 8.886719 31.394531 9.035156 31.03125 Z M 9.035156 31.03125 "/>
<path style=" stroke:none;fill-rule:evenodd;fill:rgb(70.588235%,70.980392%,70.980392%);fill-opacity:1;" d="M 21.234375 28.761719 C 21.234375 30.070312 21.234375 31.375 21.234375 32.679688 C 21.957031 32.679688 22.675781 32.679688 23.398438 32.679688 C 22.65625 32.882812 21.882812 32.953125 21.082031 32.886719 C 21.03125 31.472656 21.082031 30.097656 21.234375 28.761719 Z M 21.234375 28.761719 "/>
</g>
</svg>
